<?xml version="1.0" encoding="UTF-8" standalone="no"?><svg xmlns="http://www.w3.org/2000/svg" xmlns:xlink="http://www.w3.org/1999/xlink" contentScriptType="application/ecmascript" contentStyleType="text/css" height="315px" preserveAspectRatio="none" style="width:294px;height:315px;" version="1.1" viewBox="0 0 294 315" width="294px" zoomAndPan="magnify"><defs/><g><!--MD5=[a6131d7b371b39b67ea83cadc53e2f0d]
class CollectLogEvent--><rect fill="#E3F2FD" height="58.5938" id="CollectLogEvent" style="stroke: #64B5F6; stroke-width: 1.0;" width="134" x="6" y="8"/><ellipse cx="20" cy="29.2969" fill="#ADD1B2" rx="10" ry="10" style="stroke: #64B5F6; stroke-width: 1.0;"/><path d="M22.3281,33.9375 Q21.8125,34.2188 21.25,34.3594 Q20.7031,34.5 20.0781,34.5 Q18.125,34.5 17.0313,33.1094 Q15.9531,31.7188 15.9531,29.2031 Q15.9531,26.7031 17.0313,25.3125 Q18.125,23.9063 20.0781,23.9063 Q20.7031,23.9063 21.25,24.0469 Q21.8125,24.1875 22.3281,24.4688 L22.3281,25.875 Q21.8281,25.4688 21.25,25.25 Q20.6719,25.0313 20.0781,25.0313 Q18.7344,25.0313 18.0625,26.0781 Q17.3906,27.1094 17.3906,29.2031 Q17.3906,31.2969 18.0625,32.3438 Q18.7344,33.375 20.0781,33.375 Q20.6875,33.375 21.2656,33.1563 Q21.8438,32.9375 22.3281,32.5156 L22.3281,33.9375 Z "/><text fill="#222222" font-family="&quot;Arial&quot;,&quot;Microsoft YaHei&quot;,&quot;黑体&quot;,&quot;宋体&quot;,sans-serif" font-size="14" lengthAdjust="spacingAndGlyphs" textLength="104" x="33" y="25.9951">CollectedEvent</text><text fill="#222222" font-family="&quot;Arial&quot;,&quot;Microsoft YaHei&quot;,&quot;黑体&quot;,&quot;宋体&quot;,sans-serif" font-size="14" lengthAdjust="spacingAndGlyphs" textLength="56" x="57" y="42.292">收集事件</text><line style="stroke: #64B5F6; stroke-width: 1.0;" x1="7" x2="139" y1="50.5938" y2="50.5938"/><line style="stroke: #64B5F6; stroke-width: 1.0;" x1="7" x2="139" y1="58.5938" y2="58.5938"/><!--MD5=[c160724f8e3bb89ca8141a12554ac2e3]
class Collection--><rect fill="#E3F2FD" height="58.5938" id="Collection" style="stroke: #64B5F6; stroke-width: 1.0;" width="98" x="175" y="8"/><ellipse cx="189" cy="29.2969" fill="#ADD1B2" rx="10" ry="10" style="stroke: #64B5F6; stroke-width: 1.0;"/><path d="M191.3281,33.9375 Q190.8125,34.2188 190.25,34.3594 Q189.7031,34.5 189.0781,34.5 Q187.125,34.5 186.0313,33.1094 Q184.9531,31.7188 184.9531,29.2031 Q184.9531,26.7031 186.0313,25.3125 Q187.125,23.9063 189.0781,23.9063 Q189.7031,23.9063 190.25,24.0469 Q190.8125,24.1875 191.3281,24.4688 L191.3281,25.875 Q190.8281,25.4688 190.25,25.25 Q189.6719,25.0313 189.0781,25.0313 Q187.7344,25.0313 187.0625,26.0781 Q186.3906,27.1094 186.3906,29.2031 Q186.3906,31.2969 187.0625,32.3438 Q187.7344,33.375 189.0781,33.375 Q189.6875,33.375 190.2656,33.1563 Q190.8438,32.9375 191.3281,32.5156 L191.3281,33.9375 Z "/><text fill="#222222" font-family="&quot;Arial&quot;,&quot;Microsoft YaHei&quot;,&quot;黑体&quot;,&quot;宋体&quot;,sans-serif" font-size="14" lengthAdjust="spacingAndGlyphs" textLength="68" x="202" y="25.9951">Collection</text><text fill="#222222" font-family="&quot;Arial&quot;,&quot;Microsoft YaHei&quot;,&quot;黑体&quot;,&quot;宋体&quot;,sans-serif" font-size="14" lengthAdjust="spacingAndGlyphs" textLength="28" x="222" y="42.292">收集</text><line style="stroke: #64B5F6; stroke-width: 1.0;" x1="176" x2="272" y1="50.5938" y2="50.5938"/><line style="stroke: #64B5F6; stroke-width: 1.0;" x1="176" x2="272" y1="58.5938" y2="58.5938"/><!--MD5=[63dd87716ef75a5caca5dce59428e94a]
class File--><rect fill="#E3F2FD" height="58.5938" id="File" style="stroke: #64B5F6; stroke-width: 1.0;" width="58" x="195" y="246"/><ellipse cx="209" cy="267.2969" fill="#ADD1B2" rx="10" ry="10" style="stroke: #64B5F6; stroke-width: 1.0;"/><path d="M211.3281,271.9375 Q210.8125,272.2188 210.25,272.3594 Q209.7031,272.5 209.0781,272.5 Q207.125,272.5 206.0313,271.1094 Q204.9531,269.7188 204.9531,267.2031 Q204.9531,264.7031 206.0313,263.3125 Q207.125,261.9063 209.0781,261.9063 Q209.7031,261.9063 210.25,262.0469 Q210.8125,262.1875 211.3281,262.4688 L211.3281,263.875 Q210.8281,263.4688 210.25,263.25 Q209.6719,263.0313 209.0781,263.0313 Q207.7344,263.0313 207.0625,264.0781 Q206.3906,265.1094 206.3906,267.2031 Q206.3906,269.2969 207.0625,270.3438 Q207.7344,271.375 209.0781,271.375 Q209.6875,271.375 210.2656,271.1563 Q210.8438,270.9375 211.3281,270.5156 L211.3281,271.9375 Z "/><text fill="#222222" font-family="&quot;Arial&quot;,&quot;Microsoft YaHei&quot;,&quot;黑体&quot;,&quot;宋体&quot;,sans-serif" font-size="14" lengthAdjust="spacingAndGlyphs" textLength="23" x="224.5" y="263.9951">File</text><text fill="#222222" font-family="&quot;Arial&quot;,&quot;Microsoft YaHei&quot;,&quot;黑体&quot;,&quot;宋体&quot;,sans-serif" font-size="14" lengthAdjust="spacingAndGlyphs" textLength="28" x="222" y="280.292">文件</text><line style="stroke: #64B5F6; stroke-width: 1.0;" x1="196" x2="252" y1="288.5938" y2="288.5938"/><line style="stroke: #64B5F6; stroke-width: 1.0;" x1="196" x2="252" y1="296.5938" y2="296.5938"/><!--MD5=[dbb7ba3d0d21354681a0e7a6e103d486]
class Presentation--><rect fill="#E3F2FD" height="58.5938" id="Presentation" style="stroke: #64B5F6; stroke-width: 1.0;" width="118" x="165" y="127"/><ellipse cx="179" cy="148.2969" fill="#ADD1B2" rx="10" ry="10" style="stroke: #64B5F6; stroke-width: 1.0;"/><path d="M181.3281,152.9375 Q180.8125,153.2188 180.25,153.3594 Q179.7031,153.5 179.0781,153.5 Q177.125,153.5 176.0313,152.1094 Q174.9531,150.7188 174.9531,148.2031 Q174.9531,145.7031 176.0313,144.3125 Q177.125,142.9063 179.0781,142.9063 Q179.7031,142.9063 180.25,143.0469 Q180.8125,143.1875 181.3281,143.4688 L181.3281,144.875 Q180.8281,144.4688 180.25,144.25 Q179.6719,144.0313 179.0781,144.0313 Q177.7344,144.0313 177.0625,145.0781 Q176.3906,146.1094 176.3906,148.2031 Q176.3906,150.2969 177.0625,151.3438 Q177.7344,152.375 179.0781,152.375 Q179.6875,152.375 180.2656,152.1563 Q180.8438,151.9375 181.3281,151.5156 L181.3281,152.9375 Z "/><text fill="#222222" font-family="&quot;Arial&quot;,&quot;Microsoft YaHei&quot;,&quot;黑体&quot;,&quot;宋体&quot;,sans-serif" font-size="14" lengthAdjust="spacingAndGlyphs" textLength="88" x="192" y="144.9951">Presentation</text><text fill="#222222" font-family="&quot;Arial&quot;,&quot;Microsoft YaHei&quot;,&quot;黑体&quot;,&quot;宋体&quot;,sans-serif" font-size="14" lengthAdjust="spacingAndGlyphs" textLength="28" x="222" y="161.292">展示</text><line style="stroke: #64B5F6; stroke-width: 1.0;" x1="166" x2="282" y1="169.5938" y2="169.5938"/><line style="stroke: #64B5F6; stroke-width: 1.0;" x1="166" x2="282" y1="177.5938" y2="177.5938"/><!--MD5=[0244812863e11e3ea041cd8e5569dbc2]
link Presentation to File--><path d="M224,198.2218 C224,198.2218 224,221.7068 224,232.5532 " fill="none" id="Presentation-File" style="stroke: #1565C0; stroke-width: 1.0;"/><polygon fill="#1565C0" points="224,245.7447,228,236.7447,224,240.7447,220,236.7447,224,245.7447" style="stroke: #1565C0; stroke-width: 1.0;"/><line style="stroke: #1565C0; stroke-width: 1.0;" x1="224" x2="224.0001" y1="240.7447" y2="232.7447"/><polygon fill="#1565C0" points="224,186.2218,220,192.2218,224,198.2218,228,192.2218,224,186.2218" style="stroke: #1565C0; stroke-width: 1.0;"/><text fill="#222222" font-family="&quot;Arial&quot;,&quot;Microsoft YaHei&quot;,&quot;黑体&quot;,&quot;宋体&quot;,sans-serif" font-size="14" lengthAdjust="spacingAndGlyphs" textLength="9" x="214.1422" y="206.4747">1</text><text fill="#222222" font-family="&quot;Arial&quot;,&quot;Microsoft YaHei&quot;,&quot;黑体&quot;,&quot;宋体&quot;,sans-serif" font-size="14" lengthAdjust="spacingAndGlyphs" textLength="7" x="216.2344" y="234.5577">*</text><!--MD5=[c0e3cc722b5643a7167c7f6891219d47]
link Collection to Presentation--><path d="M224,79.2218 C224,79.2218 224,102.7068 224,113.5532 " fill="none" id="Collection-Presentation" style="stroke: #1565C0; stroke-width: 1.0;"/><polygon fill="#1565C0" points="224,126.7447,228,117.7447,224,121.7447,220,117.7447,224,126.7447" style="stroke: #1565C0; stroke-width: 1.0;"/><line style="stroke: #1565C0; stroke-width: 1.0;" x1="224" x2="224.0001" y1="121.7447" y2="113.7447"/><polygon fill="#FFFFFF" points="224,67.2218,220,73.2218,224,79.2218,228,73.2218,224,67.2218" style="stroke: #1565C0; stroke-width: 1.0;"/><text fill="#222222" font-family="&quot;Arial&quot;,&quot;Microsoft YaHei&quot;,&quot;黑体&quot;,&quot;宋体&quot;,sans-serif" font-size="14" lengthAdjust="spacingAndGlyphs" textLength="9" x="214.1422" y="87.4747">1</text><text fill="#222222" font-family="&quot;Arial&quot;,&quot;Microsoft YaHei&quot;,&quot;黑体&quot;,&quot;宋体&quot;,sans-serif" font-size="14" lengthAdjust="spacingAndGlyphs" textLength="7" x="216.2344" y="115.5577">*</text><!--MD5=[3fe795df2c63d2a64b4568b91bc4a954]
@startuml
































skinparam maxMessageSize 150
skinparam ComponentStyle uml2
skinparam Shadowing false

skinparam Default {
    FontName "Arial","Microsoft YaHei","黑体","宋体",sans-serif
    FontColor #222222
    FontSize  14
    FontStyle plain
    Shadowing false
    TextAlignment center
    BackgroundColor #E3F2FD
    BorderColor #424242
}

skinparam Title {
    FontSize 20
    FontStyle bold
}

skinparam Note {
    BackgroundColor #90A4AE
    BorderColor #90A4AE
    BorderThickness 1
    FontColor White
    Shadowing false
    TextAlignment left
}

skinparam Note<<quit>> {

    BackgroundColor #F9A825
    BorderColor #F9A825
}

skinparam Sequence {
    ActorBorderThickness 1
    LifeLineBorderColor GREEN
    ParticipantBorderThickness 0
    Shadowing false


    GroupBorderThickness 1
    GroupBorderColor #1565C0
    GroupBackgroundColor #BBDEFB
}

skinparam Activity {

    StartColor #37A77C
    EndColor #F6363F
    AttributeFontColor white
    AttributeFontSize  15
    AttributeFontname  Droid Sans Mono

    BackgroundColor #BBDEFB
    BorderColor #90CAF9
    BorderThickness 1

    ArrowThickness 1


    BarColor   #0D47A1


    DiamondBackgroundColor   #FFE0B2
    DiamondBorderColor    #FFCC80


}

skinparam Class {
    BackgroundColor #E3F2FD
    BorderColor #64B5F6
    BorderThickness 1


    StereotypeFontColor #589DF6
    StereotypeFontSize 14
}



skinparam Interface {
    BackgroundColor #E3F2FD
    BorderColor #424242
    FontSize 14


    StereotypeFontColor #589DF6
    StereotypeFontSize 1
}



skinparam Participant {
    BackgroundColor #1565C0
    BorderColor #1565C0
    FontColor White
    Shadowing false
}

skinparam Actor {
    BackgroundColor #1565C0
    BorderColor #1565C0
    Shadowing false
}

skinparam UseCase {
    BackgroundColor #64B5F6
    BorderColor #64B5F6
    Shadowing false
    ArrowThickness 1
    ArrowColor #1565C0

    ActorBackgroundColor #1565C0
    ActorBorderColor #0D47A1
    ActorShadowing false
 
}


skinparam State {
    FontSize           17

    AttributeFontSize  14
    
    BackgroundColor    #BBDEFB
    BorderColor        #90CAF9
    StartColor #37A77C
    EndColor #F6363F
}

skinparam Partition {
    BorderColor #424242
    BorderStyle dashed

    BorderThickness 1
}

skinparam rectangle {
    StereotypeFontSize 12
    shadowing false
}

skinparam database {
    StereotypeFontSize 12
    shadowing false
}

skinparam Queue {
    BackgroundColor #E3F2FD
    BorderColor #424242
}
skinparam Agent {
    BackgroundColor #E3F2FD
    BorderColor #424242
}
skinparam Artifact {
    BackgroundColor #E3F2FD
    BorderColor #424242
}

skinparam Boundary {
    BackgroundColor #E3F2FD
    BorderColor #424242
}
skinparam Card {
    BackgroundColor #E3F2FD
    BorderColor #424242
}

skinparam Cloud {
    BackgroundColor #E3F2FD
    BorderColor #424242
}

skinparam Component {
    BackgroundColor #E3F2FD
    BorderColor #424242
}
skinparam Control {
    BackgroundColor #E3F2FD
    BorderColor #424242
}
skinparam Database {
    BackgroundColor #E3F2FD
    BorderColor #424242
}

skinparam Entity {
    BackgroundColor #E3F2FD
    BorderColor #424242
}
skinparam File {
    BackgroundColor #E3F2FD
    BorderColor #424242
}
skinparam Folder {
    BackgroundColor #E3F2FD
    BorderColor #424242
   
}
skinparam Frame {
    BackgroundColor #E3F2FD
    BorderColor #424242
}
skinparam Node {
    BackgroundColor #E3F2FD
    BorderColor #424242
}


skinparam Package {
    BackgroundColor #E3F2FD
    BorderColor #424242
}
skinparam Stack {
    BackgroundColor #E3F2FD
    BorderColor #424242
}

skinparam Rectangle {
    BackgroundColor #E3F2FD
    BorderColor #424242
}

skinparam Storage {
    BackgroundColor #E3F2FD
    BorderColor #424242
}

skinparam rectangle<<usercase>> {
    Shadowing false
    StereotypeFontSize 0
    FontColor #424242
    BorderColor #424242
    BorderStyle dashed
    BackgroundColor White
}












class "CollectedEvent\n收集事件" as CollectLogEvent

class "Collection\n收集" as Collection

class "File\n文件" as File

class "Presentation\n展示" as Presentation
Presentation "1" *- -> "*" File
Collection "1" o- -> "*" Presentation
@enduml

PlantUML version 1.2020.02(Sun Mar 01 10:22:07 UTC 2020)
(GPL source distribution)
Java Runtime: OpenJDK Runtime Environment
JVM: OpenJDK 64-Bit Server VM
Java Version: 1.8.0_242-b08
Operating System: Linux
Default Encoding: UTF-8
Language: en
Country: null
--></g></svg>