<?xml version="1.0" encoding="UTF-8" standalone="no"?><svg xmlns="http://www.w3.org/2000/svg" xmlns:xlink="http://www.w3.org/1999/xlink" contentScriptType="application/ecmascript" contentStyleType="text/css" height="709px" preserveAspectRatio="none" style="width:389px;height:709px;" version="1.1" viewBox="0 0 389 709" width="389px" zoomAndPan="magnify"><defs/><g><!--MD5=[a6131d7b371b39b67ea83cadc53e2f0d]
class CollectLogEvent--><rect fill="#E3F2FD" height="107.4844" id="CollectLogEvent" style="stroke: #64B5F6; stroke-width: 1.0;" width="134" x="38" y="8"/><ellipse cx="52" cy="29.2969" fill="#ADD1B2" rx="10" ry="10" style="stroke: #64B5F6; stroke-width: 1.0;"/><path d="M54.3281,33.9375 Q53.8125,34.2188 53.25,34.3594 Q52.7031,34.5 52.0781,34.5 Q50.125,34.5 49.0313,33.1094 Q47.9531,31.7188 47.9531,29.2031 Q47.9531,26.7031 49.0313,25.3125 Q50.125,23.9063 52.0781,23.9063 Q52.7031,23.9063 53.25,24.0469 Q53.8125,24.1875 54.3281,24.4688 L54.3281,25.875 Q53.8281,25.4688 53.25,25.25 Q52.6719,25.0313 52.0781,25.0313 Q50.7344,25.0313 50.0625,26.0781 Q49.3906,27.1094 49.3906,29.2031 Q49.3906,31.2969 50.0625,32.3438 Q50.7344,33.375 52.0781,33.375 Q52.6875,33.375 53.2656,33.1563 Q53.8438,32.9375 54.3281,32.5156 L54.3281,33.9375 Z "/><text fill="#222222" font-family="&quot;Arial&quot;,&quot;Microsoft YaHei&quot;,&quot;黑体&quot;,&quot;宋体&quot;,sans-serif" font-size="14" lengthAdjust="spacingAndGlyphs" textLength="104" x="65" y="25.9951">CollectedEvent</text><text fill="#222222" font-family="&quot;Arial&quot;,&quot;Microsoft YaHei&quot;,&quot;黑体&quot;,&quot;宋体&quot;,sans-serif" font-size="14" lengthAdjust="spacingAndGlyphs" textLength="56" x="89" y="42.292">收集事件</text><line style="stroke: #64B5F6; stroke-width: 1.0;" x1="39" x2="171" y1="50.5938" y2="50.5938"/><text fill="#222222" font-family="&quot;Arial&quot;,&quot;Microsoft YaHei&quot;,&quot;黑体&quot;,&quot;宋体&quot;,sans-serif" font-size="14" lengthAdjust="spacingAndGlyphs" textLength="120" x="44" y="67.5889">OriginPrefix string</text><text fill="#222222" font-family="&quot;Arial&quot;,&quot;Microsoft YaHei&quot;,&quot;黑体&quot;,&quot;宋体&quot;,sans-serif" font-size="14" lengthAdjust="spacingAndGlyphs" textLength="106" x="44" y="83.8857">Time time.Time</text><text fill="#222222" font-family="&quot;Arial&quot;,&quot;Microsoft YaHei&quot;,&quot;黑体&quot;,&quot;宋体&quot;,sans-serif" font-size="14" lengthAdjust="spacingAndGlyphs" textLength="122" x="44" y="100.1826">UpdatedCount int</text><line style="stroke: #64B5F6; stroke-width: 1.0;" x1="39" x2="171" y1="107.4844" y2="107.4844"/><!--MD5=[c160724f8e3bb89ca8141a12554ac2e3]
class Collection--><rect fill="#E3F2FD" height="140.0781" id="Collection" style="stroke: #64B5F6; stroke-width: 1.0;" width="198" x="6" y="175"/><ellipse cx="67" cy="196.2969" fill="#ADD1B2" rx="10" ry="10" style="stroke: #64B5F6; stroke-width: 1.0;"/><path d="M69.3281,200.9375 Q68.8125,201.2188 68.25,201.3594 Q67.7031,201.5 67.0781,201.5 Q65.125,201.5 64.0313,200.1094 Q62.9531,198.7188 62.9531,196.2031 Q62.9531,193.7031 64.0313,192.3125 Q65.125,190.9063 67.0781,190.9063 Q67.7031,190.9063 68.25,191.0469 Q68.8125,191.1875 69.3281,191.4688 L69.3281,192.875 Q68.8281,192.4688 68.25,192.25 Q67.6719,192.0313 67.0781,192.0313 Q65.7344,192.0313 65.0625,193.0781 Q64.3906,194.1094 64.3906,196.2031 Q64.3906,198.2969 65.0625,199.3438 Q65.7344,200.375 67.0781,200.375 Q67.6875,200.375 68.2656,200.1563 Q68.8438,199.9375 69.3281,199.5156 L69.3281,200.9375 Z "/><text fill="#222222" font-family="&quot;Arial&quot;,&quot;Microsoft YaHei&quot;,&quot;黑体&quot;,&quot;宋体&quot;,sans-serif" font-size="14" lengthAdjust="spacingAndGlyphs" textLength="68" x="86" y="192.9951">Collection</text><text fill="#222222" font-family="&quot;Arial&quot;,&quot;Microsoft YaHei&quot;,&quot;黑体&quot;,&quot;宋体&quot;,sans-serif" font-size="14" lengthAdjust="spacingAndGlyphs" textLength="28" x="106" y="209.292">收集</text><line style="stroke: #64B5F6; stroke-width: 1.0;" x1="7" x2="203" y1="217.5938" y2="217.5938"/><text fill="#222222" font-family="&quot;Arial&quot;,&quot;Microsoft YaHei&quot;,&quot;黑体&quot;,&quot;宋体&quot;,sans-serif" font-size="14" lengthAdjust="spacingAndGlyphs" textLength="83" x="12" y="234.5889">Origin string</text><text fill="#222222" font-family="&quot;Arial&quot;,&quot;Microsoft YaHei&quot;,&quot;黑体&quot;,&quot;宋体&quot;,sans-serif" font-size="14" lengthAdjust="spacingAndGlyphs" textLength="72" x="12" y="250.8857">Title string</text><text fill="#222222" font-family="&quot;Arial&quot;,&quot;Microsoft YaHei&quot;,&quot;黑体&quot;,&quot;宋体&quot;,sans-serif" font-size="14" lengthAdjust="spacingAndGlyphs" textLength="186" x="12" y="267.1826">Metadata map[string]string</text><text fill="#222222" font-family="&quot;Arial&quot;,&quot;Microsoft YaHei&quot;,&quot;黑体&quot;,&quot;宋体&quot;,sans-serif" font-size="14" lengthAdjust="spacingAndGlyphs" textLength="87" x="12" y="283.4795">Tags []string</text><text fill="#222222" font-family="&quot;Arial&quot;,&quot;Microsoft YaHei&quot;,&quot;黑体&quot;,&quot;宋体&quot;,sans-serif" font-size="14" lengthAdjust="spacingAndGlyphs" textLength="153" x="12" y="299.7764">CollectTime time.Time</text><line style="stroke: #64B5F6; stroke-width: 1.0;" x1="7" x2="203" y1="307.0781" y2="307.0781"/><!--MD5=[63dd87716ef75a5caca5dce59428e94a]
class File--><rect fill="#E3F2FD" height="123.7813" id="File" style="stroke: #64B5F6; stroke-width: 1.0;" width="114" x="48" y="575"/><ellipse cx="87.2" cy="596.2969" fill="#ADD1B2" rx="10" ry="10" style="stroke: #64B5F6; stroke-width: 1.0;"/><path d="M89.5281,600.9375 Q89.0125,601.2188 88.45,601.3594 Q87.9031,601.5 87.2781,601.5 Q85.325,601.5 84.2313,600.1094 Q83.1531,598.7188 83.1531,596.2031 Q83.1531,593.7031 84.2313,592.3125 Q85.325,590.9063 87.2781,590.9063 Q87.9031,590.9063 88.45,591.0469 Q89.0125,591.1875 89.5281,591.4688 L89.5281,592.875 Q89.0281,592.4688 88.45,592.25 Q87.8719,592.0313 87.2781,592.0313 Q85.9344,592.0313 85.2625,593.0781 Q84.5906,594.1094 84.5906,596.2031 Q84.5906,598.2969 85.2625,599.3438 Q85.9344,600.375 87.2781,600.375 Q87.8875,600.375 88.4656,600.1563 Q89.0438,599.9375 89.5281,599.5156 L89.5281,600.9375 Z "/><text fill="#222222" font-family="&quot;Arial&quot;,&quot;Microsoft YaHei&quot;,&quot;黑体&quot;,&quot;宋体&quot;,sans-serif" font-size="14" lengthAdjust="spacingAndGlyphs" textLength="23" x="108.3" y="592.9951">File</text><text fill="#222222" font-family="&quot;Arial&quot;,&quot;Microsoft YaHei&quot;,&quot;黑体&quot;,&quot;宋体&quot;,sans-serif" font-size="14" lengthAdjust="spacingAndGlyphs" textLength="28" x="105.8" y="609.292">文件</text><line style="stroke: #64B5F6; stroke-width: 1.0;" x1="49" x2="161" y1="617.5938" y2="617.5938"/><text fill="#222222" font-family="&quot;Arial&quot;,&quot;Microsoft YaHei&quot;,&quot;黑体&quot;,&quot;宋体&quot;,sans-serif" font-size="14" lengthAdjust="spacingAndGlyphs" textLength="74" x="54" y="634.5889">Path string</text><text fill="#222222" font-family="&quot;Arial&quot;,&quot;Microsoft YaHei&quot;,&quot;黑体&quot;,&quot;宋体&quot;,sans-serif" font-size="14" lengthAdjust="spacingAndGlyphs" textLength="102" x="54" y="650.8857">ModTime Time</text><text fill="#222222" font-family="&quot;Arial&quot;,&quot;Microsoft YaHei&quot;,&quot;黑体&quot;,&quot;宋体&quot;,sans-serif" font-size="14" lengthAdjust="spacingAndGlyphs" textLength="68" x="54" y="667.1826">Size Int64</text><line style="stroke: #64B5F6; stroke-width: 1.0;" x1="49" x2="161" y1="674.4844" y2="674.4844"/><text fill="#222222" font-family="&quot;Arial&quot;,&quot;Microsoft YaHei&quot;,&quot;黑体&quot;,&quot;宋体&quot;,sans-serif" font-size="14" lengthAdjust="spacingAndGlyphs" textLength="74" x="54" y="691.4795">Stat() error</text><!--MD5=[084b903b0d76a744f5259c1ddd97ac75]
class PresentationType--><rect fill="#E3F2FD" height="91.1875" id="PresentationType" style="stroke: #64B5F6; stroke-width: 1.0;" width="152" x="226" y="399.5"/><ellipse cx="240" cy="420.7969" fill="#EB937F" rx="10" ry="10" style="stroke: #64B5F6; stroke-width: 1.0;"/><path d="M236.8438,415.5938 L242.9063,415.5938 L242.9063,416.75 L238.2344,416.75 L238.2344,419.7813 L242.7031,419.7813 L242.7031,420.9375 L238.2344,420.9375 L238.2344,424.6406 L243.0313,424.6406 L243.0313,425.7969 L236.8438,425.7969 L236.8438,415.5938 Z "/><text fill="#222222" font-family="&quot;Arial&quot;,&quot;Microsoft YaHei&quot;,&quot;黑体&quot;,&quot;宋体&quot;,sans-serif" font-size="14" lengthAdjust="spacingAndGlyphs" textLength="122" x="253" y="417.4951">PresentationType</text><text fill="#222222" font-family="&quot;Arial&quot;,&quot;Microsoft YaHei&quot;,&quot;黑体&quot;,&quot;宋体&quot;,sans-serif" font-size="14" lengthAdjust="spacingAndGlyphs" textLength="56" x="286" y="433.792">展示类型</text><line style="stroke: #64B5F6; stroke-width: 1.0;" x1="227" x2="377" y1="442.0938" y2="442.0938"/><text fill="#222222" font-family="&quot;Arial&quot;,&quot;Microsoft YaHei&quot;,&quot;黑体&quot;,&quot;宋体&quot;,sans-serif" font-size="14" lengthAdjust="spacingAndGlyphs" textLength="44" x="232" y="459.0889">IMAGE</text><text fill="#222222" font-family="&quot;Arial&quot;,&quot;Microsoft YaHei&quot;,&quot;黑体&quot;,&quot;宋体&quot;,sans-serif" font-size="14" lengthAdjust="spacingAndGlyphs" textLength="43" x="232" y="475.3857">VIDEO</text><line style="stroke: #64B5F6; stroke-width: 1.0;" x1="227" x2="377" y1="482.6875" y2="482.6875"/><!--MD5=[dbb7ba3d0d21354681a0e7a6e103d486]
class Presentation--><rect fill="#E3F2FD" height="140.0781" id="Presentation" style="stroke: #64B5F6; stroke-width: 1.0;" width="172" x="19" y="375"/><ellipse cx="57.3" cy="396.2969" fill="#ADD1B2" rx="10" ry="10" style="stroke: #64B5F6; stroke-width: 1.0;"/><path d="M59.6281,400.9375 Q59.1125,401.2188 58.55,401.3594 Q58.0031,401.5 57.3781,401.5 Q55.425,401.5 54.3313,400.1094 Q53.2531,398.7188 53.2531,396.2031 Q53.2531,393.7031 54.3313,392.3125 Q55.425,390.9063 57.3781,390.9063 Q58.0031,390.9063 58.55,391.0469 Q59.1125,391.1875 59.6281,391.4688 L59.6281,392.875 Q59.1281,392.4688 58.55,392.25 Q57.9719,392.0313 57.3781,392.0313 Q56.0344,392.0313 55.3625,393.0781 Q54.6906,394.1094 54.6906,396.2031 Q54.6906,398.2969 55.3625,399.3438 Q56.0344,400.375 57.3781,400.375 Q57.9875,400.375 58.5656,400.1563 Q59.1438,399.9375 59.6281,399.5156 L59.6281,400.9375 Z "/><text fill="#222222" font-family="&quot;Arial&quot;,&quot;Microsoft YaHei&quot;,&quot;黑体&quot;,&quot;宋体&quot;,sans-serif" font-size="14" lengthAdjust="spacingAndGlyphs" textLength="88" x="75.7" y="392.9951">Presentation</text><text fill="#222222" font-family="&quot;Arial&quot;,&quot;Microsoft YaHei&quot;,&quot;黑体&quot;,&quot;宋体&quot;,sans-serif" font-size="14" lengthAdjust="spacingAndGlyphs" textLength="28" x="105.7" y="409.292">展示</text><line style="stroke: #64B5F6; stroke-width: 1.0;" x1="20" x2="190" y1="417.5938" y2="417.5938"/><text fill="#222222" font-family="&quot;Arial&quot;,&quot;Microsoft YaHei&quot;,&quot;黑体&quot;,&quot;宋体&quot;,sans-serif" font-size="14" lengthAdjust="spacingAndGlyphs" textLength="160" x="25" y="434.5889">Type PresentationType</text><text fill="#222222" font-family="&quot;Arial&quot;,&quot;Microsoft YaHei&quot;,&quot;黑体&quot;,&quot;宋体&quot;,sans-serif" font-size="14" lengthAdjust="spacingAndGlyphs" textLength="56" x="25" y="450.8857">Raw File</text><text fill="#222222" font-family="&quot;Arial&quot;,&quot;Microsoft YaHei&quot;,&quot;黑体&quot;,&quot;宋体&quot;,sans-serif" font-size="14" lengthAdjust="spacingAndGlyphs" textLength="76" x="25" y="467.1826">Thumb File</text><text fill="#222222" font-family="&quot;Arial&quot;,&quot;Microsoft YaHei&quot;,&quot;黑体&quot;,&quot;宋体&quot;,sans-serif" font-size="14" lengthAdjust="spacingAndGlyphs" textLength="80" x="25" y="483.4795">Regular File</text><line style="stroke: #64B5F6; stroke-width: 1.0;" x1="20" x2="190" y1="490.7813" y2="490.7813"/><text fill="#222222" font-family="&quot;Arial&quot;,&quot;Microsoft YaHei&quot;,&quot;黑体&quot;,&quot;宋体&quot;,sans-serif" font-size="14" lengthAdjust="spacingAndGlyphs" textLength="84" x="25" y="507.7764">Transcode()</text><!--MD5=[d5d6efd1b1420c4102c50f64d3508e06]
link CollectLogEvent to Collection--><path d="M105,120.4 C105,136.1466 105,153.3804 105,169.8728 " fill="none" id="CollectLogEvent-Collection" style="stroke: #1565C0; stroke-width: 1.0;"/><polygon fill="#1565C0" points="105,174.9649,109,165.9649,105,169.9649,101,165.9649,105,174.9649" style="stroke: #1565C0; stroke-width: 1.0;"/><path d="M101,120.0691 L109,128.0691 M109,120.0691 L101,128.0691 " fill="none" style="stroke: #1565C0; stroke-width: 1.0;"/><text fill="#222222" font-family="&quot;Arial&quot;,&quot;Microsoft YaHei&quot;,&quot;黑体&quot;,&quot;宋体&quot;,sans-serif" font-size="14" lengthAdjust="spacingAndGlyphs" textLength="7" x="97.5297" y="136.325">*</text><text fill="#222222" font-family="&quot;Arial&quot;,&quot;Microsoft YaHei&quot;,&quot;黑体&quot;,&quot;宋体&quot;,sans-serif" font-size="14" lengthAdjust="spacingAndGlyphs" textLength="7" x="97.6391" y="163.9239">*</text><!--MD5=[0244812863e11e3ea041cd8e5569dbc2]
link Presentation to File--><path d="M105,527.1314 C105,527.1314 105,550.7576 105,561.7796 " fill="none" id="Presentation-File" style="stroke: #1565C0; stroke-width: 1.0;"/><polygon fill="#1565C0" points="105,574.9919,109,565.9919,105,569.9919,101,565.9919,105,574.9919" style="stroke: #1565C0; stroke-width: 1.0;"/><line style="stroke: #1565C0; stroke-width: 1.0;" x1="105" x2="105.0001" y1="569.9919" y2="561.9919"/><polygon fill="#1565C0" points="105,515.1314,101,521.1314,105,527.1314,109,521.1314,105,515.1314" style="stroke: #1565C0; stroke-width: 1.0;"/><text fill="#222222" font-family="&quot;Arial&quot;,&quot;Microsoft YaHei&quot;,&quot;黑体&quot;,&quot;宋体&quot;,sans-serif" font-size="14" lengthAdjust="spacingAndGlyphs" textLength="9" x="95.5359" y="536.1951">1</text><text fill="#222222" font-family="&quot;Arial&quot;,&quot;Microsoft YaHei&quot;,&quot;黑体&quot;,&quot;宋体&quot;,sans-serif" font-size="14" lengthAdjust="spacingAndGlyphs" textLength="7" x="97.5734" y="563.4862">*</text><!--MD5=[c0e3cc722b5643a7167c7f6891219d47]
link Collection to Presentation--><path d="M105,327.2313 C105,327.2313 105,350.7947 105,361.7492 " fill="none" id="Collection-Presentation" style="stroke: #1565C0; stroke-width: 1.0;"/><polygon fill="#1565C0" points="105,374.9378,109,365.9378,105,369.9378,101,365.9378,105,374.9378" style="stroke: #1565C0; stroke-width: 1.0;"/><line style="stroke: #1565C0; stroke-width: 1.0;" x1="105" x2="105.0001" y1="369.9378" y2="361.9378"/><polygon fill="#FFFFFF" points="105,315.2313,101,321.2313,105,327.2313,109,321.2313,105,315.2313" style="stroke: #1565C0; stroke-width: 1.0;"/><text fill="#222222" font-family="&quot;Arial&quot;,&quot;Microsoft YaHei&quot;,&quot;黑体&quot;,&quot;宋体&quot;,sans-serif" font-size="14" lengthAdjust="spacingAndGlyphs" textLength="9" x="95.5359" y="336.3053">1</text><text fill="#222222" font-family="&quot;Arial&quot;,&quot;Microsoft YaHei&quot;,&quot;黑体&quot;,&quot;宋体&quot;,sans-serif" font-size="14" lengthAdjust="spacingAndGlyphs" textLength="7" x="97.6391" y="363.894">*</text><!--MD5=[ad46c2edc0e3442f89c0c7eb20c7d367]
link Presentation to PresentationType--><path d="M196.3277,445 C204.4678,445 212.6079,445 220.748,445 " fill="none" id="Presentation-PresentationType" style="stroke: #1565C0; stroke-width: 1.0;"/><polygon fill="#1565C0" points="225.8164,445,216.8164,441,220.8164,445,216.8164,449,225.8164,445" style="stroke: #1565C0; stroke-width: 1.0;"/><path d="M196.1875,449 L204.1875,441 M196.1875,441 L204.1875,449 " fill="none" style="stroke: #1565C0; stroke-width: 1.0;"/><text fill="#222222" font-family="&quot;Arial&quot;,&quot;Microsoft YaHei&quot;,&quot;黑体&quot;,&quot;宋体&quot;,sans-serif" font-size="14" lengthAdjust="spacingAndGlyphs" textLength="7" x="198.895" y="441.317">*</text><text fill="#222222" font-family="&quot;Arial&quot;,&quot;Microsoft YaHei&quot;,&quot;黑体&quot;,&quot;宋体&quot;,sans-serif" font-size="14" lengthAdjust="spacingAndGlyphs" textLength="9" x="208.8741" y="441.213">1</text><!--MD5=[5cf6619e185b81e4f55386c984501a40]
@startuml
































skinparam maxMessageSize 150
skinparam ComponentStyle uml2
skinparam Shadowing false

skinparam Default {
    FontName "Arial","Microsoft YaHei","黑体","宋体",sans-serif
    FontColor #222222
    FontSize  14
    FontStyle plain
    Shadowing false
    TextAlignment center
    BackgroundColor #E3F2FD
    BorderColor #424242
}

skinparam Title {
    FontSize 20
    FontStyle bold
}

skinparam Note {
    BackgroundColor #90A4AE
    BorderColor #90A4AE
    BorderThickness 1
    FontColor White
    Shadowing false
    TextAlignment left
}

skinparam Note<<quit>> {

    BackgroundColor #F9A825
    BorderColor #F9A825
}

skinparam Sequence {
    ActorBorderThickness 1
    LifeLineBorderColor GREEN
    ParticipantBorderThickness 0
    Shadowing false


    GroupBorderThickness 1
    GroupBorderColor #1565C0
    GroupBackgroundColor #BBDEFB
}

skinparam Activity {

    StartColor #37A77C
    EndColor #F6363F
    AttributeFontColor white
    AttributeFontSize  15
    AttributeFontname  Droid Sans Mono

    BackgroundColor #BBDEFB
    BorderColor #90CAF9
    BorderThickness 1

    ArrowThickness 1


    BarColor   #0D47A1


    DiamondBackgroundColor   #FFE0B2
    DiamondBorderColor    #FFCC80


}

skinparam Class {
    BackgroundColor #E3F2FD
    BorderColor #64B5F6
    BorderThickness 1


    StereotypeFontColor #589DF6
    StereotypeFontSize 14
}



skinparam Interface {
    BackgroundColor #E3F2FD
    BorderColor #424242
    FontSize 14


    StereotypeFontColor #589DF6
    StereotypeFontSize 1
}



skinparam Participant {
    BackgroundColor #1565C0
    BorderColor #1565C0
    FontColor White
    Shadowing false
}

skinparam Actor {
    BackgroundColor #1565C0
    BorderColor #1565C0
    Shadowing false
}

skinparam UseCase {
    BackgroundColor #64B5F6
    BorderColor #64B5F6
    Shadowing false
    ArrowThickness 1
    ArrowColor #1565C0

    ActorBackgroundColor #1565C0
    ActorBorderColor #0D47A1
    ActorShadowing false
 
}


skinparam State {
    FontSize           17

    AttributeFontSize  14
    
    BackgroundColor    #BBDEFB
    BorderColor        #90CAF9
    StartColor #37A77C
    EndColor #F6363F
}

skinparam Partition {
    BorderColor #424242
    BorderStyle dashed

    BorderThickness 1
}

skinparam rectangle {
    StereotypeFontSize 12
    shadowing false
}

skinparam database {
    StereotypeFontSize 12
    shadowing false
}

skinparam Queue {
    BackgroundColor #E3F2FD
    BorderColor #424242
}
skinparam Agent {
    BackgroundColor #E3F2FD
    BorderColor #424242
}
skinparam Artifact {
    BackgroundColor #E3F2FD
    BorderColor #424242
}

skinparam Boundary {
    BackgroundColor #E3F2FD
    BorderColor #424242
}
skinparam Card {
    BackgroundColor #E3F2FD
    BorderColor #424242
}

skinparam Cloud {
    BackgroundColor #E3F2FD
    BorderColor #424242
}

skinparam Component {
    BackgroundColor #E3F2FD
    BorderColor #424242
}
skinparam Control {
    BackgroundColor #E3F2FD
    BorderColor #424242
}
skinparam Database {
    BackgroundColor #E3F2FD
    BorderColor #424242
}

skinparam Entity {
    BackgroundColor #E3F2FD
    BorderColor #424242
}
skinparam File {
    BackgroundColor #E3F2FD
    BorderColor #424242
}
skinparam Folder {
    BackgroundColor #E3F2FD
    BorderColor #424242
   
}
skinparam Frame {
    BackgroundColor #E3F2FD
    BorderColor #424242
}
skinparam Node {
    BackgroundColor #E3F2FD
    BorderColor #424242
}


skinparam Package {
    BackgroundColor #E3F2FD
    BorderColor #424242
}
skinparam Stack {
    BackgroundColor #E3F2FD
    BorderColor #424242
}

skinparam Rectangle {
    BackgroundColor #E3F2FD
    BorderColor #424242
}

skinparam Storage {
    BackgroundColor #E3F2FD
    BorderColor #424242
}

skinparam rectangle<<usercase>> {
    Shadowing false
    StereotypeFontSize 0
    FontColor #424242
    BorderColor #424242
    BorderStyle dashed
    BackgroundColor White
}












class "CollectedEvent\n收集事件" as CollectLogEvent {
  OriginPrefix string
  Time time.Time
  UpdatedCount int
}

class "Collection\n收集" as Collection {
  Origin string
  Title string
  Metadata map[string]string
  Tags []string
  CollectTime time.Time
}
CollectLogEvent "*" x- -> "*" Collection


class "File\n文件" as File {
  Path string
  ModTime Time
  Size Int64
  Stat() error
}
enum "PresentationType\n展示类型" as PresentationType {
  IMAGE
  VIDEO
}
class "Presentation\n展示" as Presentation {
  Type PresentationType
  Raw File
  Thumb File
  Regular File
  Transcode()
}
Presentation "1" *- -> "*" File
Collection "1" o- -> "*" Presentation
Presentation "*" x-> "1" PresentationType
@enduml

PlantUML version 1.2020.02(Sun Mar 01 10:22:07 UTC 2020)
(GPL source distribution)
Java Runtime: OpenJDK Runtime Environment
JVM: OpenJDK 64-Bit Server VM
Java Version: 1.8.0_242-b08
Operating System: Linux
Default Encoding: UTF-8
Language: en
Country: null
--></g></svg>