<?xml version="1.0" encoding="UTF-8" standalone="no"?><svg xmlns="http://www.w3.org/2000/svg" xmlns:xlink="http://www.w3.org/1999/xlink" contentScriptType="application/ecmascript" contentStyleType="text/css" height="575px" preserveAspectRatio="none" style="width:380px;height:575px;" version="1.1" viewBox="0 0 380 575" width="380px" zoomAndPan="magnify"><defs/><g><!--MD5=[a6131d7b371b39b67ea83cadc53e2f0d]
class CollectLogEvent--><rect fill="#E3F2FD" height="107.4844" id="CollectLogEvent" style="stroke: #64B5F6; stroke-width: 1.0;" width="134" x="6" y="24.5"/><ellipse cx="20" cy="45.7969" fill="#ADD1B2" rx="10" ry="10" style="stroke: #64B5F6; stroke-width: 1.0;"/><path d="M22.3281,50.4375 Q21.8125,50.7188 21.25,50.8594 Q20.7031,51 20.0781,51 Q18.125,51 17.0313,49.6094 Q15.9531,48.2188 15.9531,45.7031 Q15.9531,43.2031 17.0313,41.8125 Q18.125,40.4063 20.0781,40.4063 Q20.7031,40.4063 21.25,40.5469 Q21.8125,40.6875 22.3281,40.9688 L22.3281,42.375 Q21.8281,41.9688 21.25,41.75 Q20.6719,41.5313 20.0781,41.5313 Q18.7344,41.5313 18.0625,42.5781 Q17.3906,43.6094 17.3906,45.7031 Q17.3906,47.7969 18.0625,48.8438 Q18.7344,49.875 20.0781,49.875 Q20.6875,49.875 21.2656,49.6563 Q21.8438,49.4375 22.3281,49.0156 L22.3281,50.4375 Z "/><text fill="#222222" font-family="&quot;Arial&quot;,&quot;Microsoft YaHei&quot;,&quot;黑体&quot;,&quot;宋体&quot;,sans-serif" font-size="14" lengthAdjust="spacingAndGlyphs" textLength="104" x="33" y="42.4951">CollectedEvent</text><text fill="#222222" font-family="&quot;Arial&quot;,&quot;Microsoft YaHei&quot;,&quot;黑体&quot;,&quot;宋体&quot;,sans-serif" font-size="14" lengthAdjust="spacingAndGlyphs" textLength="56" x="57" y="58.792">收集事件</text><line style="stroke: #64B5F6; stroke-width: 1.0;" x1="7" x2="139" y1="67.0938" y2="67.0938"/><text fill="#222222" font-family="&quot;Arial&quot;,&quot;Microsoft YaHei&quot;,&quot;黑体&quot;,&quot;宋体&quot;,sans-serif" font-size="14" lengthAdjust="spacingAndGlyphs" textLength="116" x="12" y="84.0889">OriginPrefix string</text><text fill="#222222" font-family="&quot;Arial&quot;,&quot;Microsoft YaHei&quot;,&quot;黑体&quot;,&quot;宋体&quot;,sans-serif" font-size="14" lengthAdjust="spacingAndGlyphs" textLength="102" x="12" y="100.3857">Time time.Time</text><text fill="#222222" font-family="&quot;Arial&quot;,&quot;Microsoft YaHei&quot;,&quot;黑体&quot;,&quot;宋体&quot;,sans-serif" font-size="14" lengthAdjust="spacingAndGlyphs" textLength="118" x="12" y="116.6826">UpdatedCount int</text><line style="stroke: #64B5F6; stroke-width: 1.0;" x1="7" x2="139" y1="123.9844" y2="123.9844"/><!--MD5=[c160724f8e3bb89ca8141a12554ac2e3]
class Collection--><rect fill="#E3F2FD" height="140.0781" id="Collection" style="stroke: #64B5F6; stroke-width: 1.0;" width="194" x="175" y="8"/><ellipse cx="234" cy="29.2969" fill="#ADD1B2" rx="10" ry="10" style="stroke: #64B5F6; stroke-width: 1.0;"/><path d="M236.3281,33.9375 Q235.8125,34.2188 235.25,34.3594 Q234.7031,34.5 234.0781,34.5 Q232.125,34.5 231.0313,33.1094 Q229.9531,31.7188 229.9531,29.2031 Q229.9531,26.7031 231.0313,25.3125 Q232.125,23.9063 234.0781,23.9063 Q234.7031,23.9063 235.25,24.0469 Q235.8125,24.1875 236.3281,24.4688 L236.3281,25.875 Q235.8281,25.4688 235.25,25.25 Q234.6719,25.0313 234.0781,25.0313 Q232.7344,25.0313 232.0625,26.0781 Q231.3906,27.1094 231.3906,29.2031 Q231.3906,31.2969 232.0625,32.3438 Q232.7344,33.375 234.0781,33.375 Q234.6875,33.375 235.2656,33.1563 Q235.8438,32.9375 236.3281,32.5156 L236.3281,33.9375 Z "/><text fill="#222222" font-family="&quot;Arial&quot;,&quot;Microsoft YaHei&quot;,&quot;黑体&quot;,&quot;宋体&quot;,sans-serif" font-size="14" lengthAdjust="spacingAndGlyphs" textLength="68" x="253" y="25.9951">Collection</text><text fill="#222222" font-family="&quot;Arial&quot;,&quot;Microsoft YaHei&quot;,&quot;黑体&quot;,&quot;宋体&quot;,sans-serif" font-size="14" lengthAdjust="spacingAndGlyphs" textLength="28" x="273" y="42.292">收藏</text><line style="stroke: #64B5F6; stroke-width: 1.0;" x1="176" x2="368" y1="50.5938" y2="50.5938"/><text fill="#222222" font-family="&quot;Arial&quot;,&quot;Microsoft YaHei&quot;,&quot;黑体&quot;,&quot;宋体&quot;,sans-serif" font-size="14" lengthAdjust="spacingAndGlyphs" textLength="79" x="181" y="67.5889">Origin string</text><text fill="#222222" font-family="&quot;Arial&quot;,&quot;Microsoft YaHei&quot;,&quot;黑体&quot;,&quot;宋体&quot;,sans-serif" font-size="14" lengthAdjust="spacingAndGlyphs" textLength="68" x="181" y="83.8857">Title string</text><text fill="#222222" font-family="&quot;Arial&quot;,&quot;Microsoft YaHei&quot;,&quot;黑体&quot;,&quot;宋体&quot;,sans-serif" font-size="14" lengthAdjust="spacingAndGlyphs" textLength="182" x="181" y="100.1826">Metadata map[string]string</text><text fill="#222222" font-family="&quot;Arial&quot;,&quot;Microsoft YaHei&quot;,&quot;黑体&quot;,&quot;宋体&quot;,sans-serif" font-size="14" lengthAdjust="spacingAndGlyphs" textLength="149" x="181" y="116.4795">CollectTime time.Time</text><text fill="#222222" font-family="&quot;Arial&quot;,&quot;Microsoft YaHei&quot;,&quot;黑体&quot;,&quot;宋体&quot;,sans-serif" font-size="14" lengthAdjust="spacingAndGlyphs" textLength="159" x="181" y="132.7764">PresentationIDs []string</text><line style="stroke: #64B5F6; stroke-width: 1.0;" x1="176" x2="368" y1="140.0781" y2="140.0781"/><!--MD5=[63dd87716ef75a5caca5dce59428e94a]
class File--><rect fill="#E3F2FD" height="107.4844" id="File" style="stroke: #64B5F6; stroke-width: 1.0;" width="144" x="200" y="457"/><ellipse cx="254" cy="478.2969" fill="#ADD1B2" rx="10" ry="10" style="stroke: #64B5F6; stroke-width: 1.0;"/><path d="M256.3281,482.9375 Q255.8125,483.2188 255.25,483.3594 Q254.7031,483.5 254.0781,483.5 Q252.125,483.5 251.0313,482.1094 Q249.9531,480.7188 249.9531,478.2031 Q249.9531,475.7031 251.0313,474.3125 Q252.125,472.9063 254.0781,472.9063 Q254.7031,472.9063 255.25,473.0469 Q255.8125,473.1875 256.3281,473.4688 L256.3281,474.875 Q255.8281,474.4688 255.25,474.25 Q254.6719,474.0313 254.0781,474.0313 Q252.7344,474.0313 252.0625,475.0781 Q251.3906,476.1094 251.3906,478.2031 Q251.3906,480.2969 252.0625,481.3438 Q252.7344,482.375 254.0781,482.375 Q254.6875,482.375 255.2656,482.1563 Q255.8438,481.9375 256.3281,481.5156 L256.3281,482.9375 Z "/><text fill="#222222" font-family="&quot;Arial&quot;,&quot;Microsoft YaHei&quot;,&quot;黑体&quot;,&quot;宋体&quot;,sans-serif" font-size="14" lengthAdjust="spacingAndGlyphs" textLength="23" x="275.5" y="474.9951">File</text><text fill="#222222" font-family="&quot;Arial&quot;,&quot;Microsoft YaHei&quot;,&quot;黑体&quot;,&quot;宋体&quot;,sans-serif" font-size="14" lengthAdjust="spacingAndGlyphs" textLength="28" x="273" y="491.292">文件</text><line style="stroke: #64B5F6; stroke-width: 1.0;" x1="201" x2="343" y1="499.5938" y2="499.5938"/><text fill="#222222" font-family="&quot;Arial&quot;,&quot;Microsoft YaHei&quot;,&quot;黑体&quot;,&quot;宋体&quot;,sans-serif" font-size="14" lengthAdjust="spacingAndGlyphs" textLength="70" x="206" y="516.5889">Path string</text><text fill="#222222" font-family="&quot;Arial&quot;,&quot;Microsoft YaHei&quot;,&quot;黑体&quot;,&quot;宋体&quot;,sans-serif" font-size="14" lengthAdjust="spacingAndGlyphs" textLength="132" x="206" y="532.8857">ModTime time.Time</text><text fill="#222222" font-family="&quot;Arial&quot;,&quot;Microsoft YaHei&quot;,&quot;黑体&quot;,&quot;宋体&quot;,sans-serif" font-size="14" lengthAdjust="spacingAndGlyphs" textLength="64" x="206" y="549.1826">Size int64</text><line style="stroke: #64B5F6; stroke-width: 1.0;" x1="201" x2="343" y1="556.4844" y2="556.4844"/><!--MD5=[dbb7ba3d0d21354681a0e7a6e103d486]
class Presentation--><rect fill="#E3F2FD" height="188.9688" id="Presentation" style="stroke: #64B5F6; stroke-width: 1.0;" width="189" x="177.5" y="208"/><ellipse cx="224" cy="229.2969" fill="#ADD1B2" rx="10" ry="10" style="stroke: #64B5F6; stroke-width: 1.0;"/><path d="M226.3281,233.9375 Q225.8125,234.2188 225.25,234.3594 Q224.7031,234.5 224.0781,234.5 Q222.125,234.5 221.0313,233.1094 Q219.9531,231.7188 219.9531,229.2031 Q219.9531,226.7031 221.0313,225.3125 Q222.125,223.9063 224.0781,223.9063 Q224.7031,223.9063 225.25,224.0469 Q225.8125,224.1875 226.3281,224.4688 L226.3281,225.875 Q225.8281,225.4688 225.25,225.25 Q224.6719,225.0313 224.0781,225.0313 Q222.7344,225.0313 222.0625,226.0781 Q221.3906,227.1094 221.3906,229.2031 Q221.3906,231.2969 222.0625,232.3438 Q222.7344,233.375 224.0781,233.375 Q224.6875,233.375 225.2656,233.1563 Q225.8438,232.9375 226.3281,232.5156 L226.3281,233.9375 Z "/><text fill="#222222" font-family="&quot;Arial&quot;,&quot;Microsoft YaHei&quot;,&quot;黑体&quot;,&quot;宋体&quot;,sans-serif" font-size="14" lengthAdjust="spacingAndGlyphs" textLength="88" x="243" y="225.9951">Presentation</text><text fill="#222222" font-family="&quot;Arial&quot;,&quot;Microsoft YaHei&quot;,&quot;黑体&quot;,&quot;宋体&quot;,sans-serif" font-size="14" lengthAdjust="spacingAndGlyphs" textLength="28" x="273" y="242.292">展示</text><line style="stroke: #64B5F6; stroke-width: 1.0;" x1="178.5" x2="365.5" y1="250.5938" y2="250.5938"/><text fill="#222222" font-family="&quot;Arial&quot;,&quot;Microsoft YaHei&quot;,&quot;黑体&quot;,&quot;宋体&quot;,sans-serif" font-size="14" lengthAdjust="spacingAndGlyphs" textLength="68" x="183.5" y="267.5889">Type Type</text><text fill="#222222" font-family="&quot;Arial&quot;,&quot;Microsoft YaHei&quot;,&quot;黑体&quot;,&quot;宋体&quot;,sans-serif" font-size="14" lengthAdjust="spacingAndGlyphs" textLength="68" x="183.5" y="283.8857">Raw string</text><text fill="#222222" font-family="&quot;Arial&quot;,&quot;Microsoft YaHei&quot;,&quot;黑体&quot;,&quot;宋体&quot;,sans-serif" font-size="14" lengthAdjust="spacingAndGlyphs" textLength="88" x="183.5" y="300.1826">Thumb string</text><text fill="#222222" font-family="&quot;Arial&quot;,&quot;Microsoft YaHei&quot;,&quot;黑体&quot;,&quot;宋体&quot;,sans-serif" font-size="14" lengthAdjust="spacingAndGlyphs" textLength="173" x="183.5" y="316.4795">ThumbSuccessTag string</text><text fill="#222222" font-family="&quot;Arial&quot;,&quot;Microsoft YaHei&quot;,&quot;黑体&quot;,&quot;宋体&quot;,sans-serif" font-size="14" lengthAdjust="spacingAndGlyphs" textLength="147" x="183.5" y="332.7764">ThumbErrorTag string</text><text fill="#222222" font-family="&quot;Arial&quot;,&quot;Microsoft YaHei&quot;,&quot;黑体&quot;,&quot;宋体&quot;,sans-serif" font-size="14" lengthAdjust="spacingAndGlyphs" textLength="92" x="183.5" y="349.0732">Regular string</text><text fill="#222222" font-family="&quot;Arial&quot;,&quot;Microsoft YaHei&quot;,&quot;黑体&quot;,&quot;宋体&quot;,sans-serif" font-size="14" lengthAdjust="spacingAndGlyphs" textLength="177" x="183.5" y="365.3701">RegularSuccessTag string</text><text fill="#222222" font-family="&quot;Arial&quot;,&quot;Microsoft YaHei&quot;,&quot;黑体&quot;,&quot;宋体&quot;,sans-serif" font-size="14" lengthAdjust="spacingAndGlyphs" textLength="151" x="183.5" y="381.667">RegularErrorTag string</text><line style="stroke: #64B5F6; stroke-width: 1.0;" x1="178.5" x2="365.5" y1="388.9688" y2="388.9688"/><!--MD5=[0244812863e11e3ea041cd8e5569dbc2]
link Presentation to File--><path d="M272,409.0662 C272,409.0662 272,432.8317 272,443.575 " fill="none" id="Presentation-File" style="stroke: #1565C0; stroke-width: 1.0;"/><polygon fill="#1565C0" points="272,456.8171,276,447.8171,272,451.8171,268,447.8171,272,456.8171" style="stroke: #1565C0; stroke-width: 1.0;"/><line style="stroke: #1565C0; stroke-width: 1.0;" x1="272" x2="272.0001" y1="451.8171" y2="443.8171"/><polygon fill="#1565C0" points="272,397.0662,268,403.0662,272,409.0662,276,403.0662,272,397.0662" style="stroke: #1565C0; stroke-width: 1.0;"/><text fill="#222222" font-family="&quot;Arial&quot;,&quot;Microsoft YaHei&quot;,&quot;黑体&quot;,&quot;宋体&quot;,sans-serif" font-size="14" lengthAdjust="spacingAndGlyphs" textLength="9" x="262.6555" y="417.9266">1</text><text fill="#222222" font-family="&quot;Arial&quot;,&quot;Microsoft YaHei&quot;,&quot;黑体&quot;,&quot;宋体&quot;,sans-serif" font-size="14" lengthAdjust="spacingAndGlyphs" textLength="7" x="264.5297" y="445.511">*</text><!--MD5=[c0e3cc722b5643a7167c7f6891219d47]
link Collection to Presentation--><path d="M272,160.1097 C272,160.1097 272,183.431 272,194.6731 " fill="none" id="Collection-Presentation" style="stroke: #1565C0; stroke-width: 1.0;"/><polygon fill="#1565C0" points="272,207.816,276,198.816,272,202.816,268,198.816,272,207.816" style="stroke: #1565C0; stroke-width: 1.0;"/><line style="stroke: #1565C0; stroke-width: 1.0;" x1="272" x2="272.0001" y1="202.816" y2="194.8161"/><polygon fill="#FFFFFF" points="272,148.1097,268,154.1097,272,160.1097,276,154.1097,272,148.1097" style="stroke: #1565C0; stroke-width: 1.0;"/><text fill="#222222" font-family="&quot;Arial&quot;,&quot;Microsoft YaHei&quot;,&quot;黑体&quot;,&quot;宋体&quot;,sans-serif" font-size="14" lengthAdjust="spacingAndGlyphs" textLength="7" x="264.6391" y="169.1712">*</text><text fill="#222222" font-family="&quot;Arial&quot;,&quot;Microsoft YaHei&quot;,&quot;黑体&quot;,&quot;宋体&quot;,sans-serif" font-size="14" lengthAdjust="spacingAndGlyphs" textLength="7" x="264.7211" y="196.6416">*</text><!--MD5=[6ca54c2a3c5f7f88d232b6d68eff94d2]
@startuml
































skinparam maxMessageSize 150
skinparam ComponentStyle uml2
skinparam Shadowing false

skinparam Default {
    FontName "Arial","Microsoft YaHei","黑体","宋体",sans-serif
    FontColor #222222
    FontSize  14
    FontStyle plain
    Shadowing false
    TextAlignment center
    BackgroundColor #E3F2FD
    BorderColor #424242
}

skinparam Title {
    FontSize 20
    FontStyle bold
}

skinparam Note {
    BackgroundColor #90A4AE
    BorderColor #90A4AE
    BorderThickness 1
    FontColor White
    Shadowing false
    TextAlignment left
}

skinparam Note<<quit>> {

    BackgroundColor #F9A825
    BorderColor #F9A825
}

skinparam Sequence {
    ActorBorderThickness 1
    LifeLineBorderColor GREEN
    ParticipantBorderThickness 0
    Shadowing false


    GroupBorderThickness 1
    GroupBorderColor #1565C0
    GroupBackgroundColor #BBDEFB
}

skinparam Activity {

    StartColor #37A77C
    EndColor #F6363F
    AttributeFontColor white
    AttributeFontSize  15
    AttributeFontname  Droid Sans Mono

    BackgroundColor #BBDEFB
    BorderColor #90CAF9
    BorderThickness 1

    ArrowThickness 1


    BarColor   #0D47A1


    DiamondBackgroundColor   #FFE0B2
    DiamondBorderColor    #FFCC80


}

skinparam Class {
    BackgroundColor #E3F2FD
    BorderColor #64B5F6
    BorderThickness 1


    StereotypeFontColor #589DF6
    StereotypeFontSize 14
}



skinparam Interface {
    BackgroundColor #E3F2FD
    BorderColor #424242
    FontSize 14


    StereotypeFontColor #589DF6
    StereotypeFontSize 1
}



skinparam Participant {
    BackgroundColor #1565C0
    BorderColor #1565C0
    FontColor White
    Shadowing false
}

skinparam Actor {
    BackgroundColor #1565C0
    BorderColor #1565C0
    Shadowing false
}

skinparam UseCase {
    BackgroundColor #64B5F6
    BorderColor #64B5F6
    Shadowing false
    ArrowThickness 1
    ArrowColor #1565C0

    ActorBackgroundColor #1565C0
    ActorBorderColor #0D47A1
    ActorShadowing false
 
}


skinparam State {
    FontSize           17

    AttributeFontSize  14
    
    BackgroundColor    #BBDEFB
    BorderColor        #90CAF9
    StartColor #37A77C
    EndColor #F6363F
}

skinparam Partition {
    BorderColor #424242
    BorderStyle dashed

    BorderThickness 1
}

skinparam rectangle {
    StereotypeFontSize 12
    shadowing false
}

skinparam database {
    StereotypeFontSize 12
    shadowing false
}

skinparam Queue {
    BackgroundColor #E3F2FD
    BorderColor #424242
}
skinparam Agent {
    BackgroundColor #E3F2FD
    BorderColor #424242
}
skinparam Artifact {
    BackgroundColor #E3F2FD
    BorderColor #424242
}

skinparam Boundary {
    BackgroundColor #E3F2FD
    BorderColor #424242
}
skinparam Card {
    BackgroundColor #E3F2FD
    BorderColor #424242
}

skinparam Cloud {
    BackgroundColor #E3F2FD
    BorderColor #424242
}

skinparam Component {
    BackgroundColor #E3F2FD
    BorderColor #424242
}
skinparam Control {
    BackgroundColor #E3F2FD
    BorderColor #424242
}
skinparam Database {
    BackgroundColor #E3F2FD
    BorderColor #424242
}

skinparam Entity {
    BackgroundColor #E3F2FD
    BorderColor #424242
}
skinparam File {
    BackgroundColor #E3F2FD
    BorderColor #424242
}
skinparam Folder {
    BackgroundColor #E3F2FD
    BorderColor #424242
   
}
skinparam Frame {
    BackgroundColor #E3F2FD
    BorderColor #424242
}
skinparam Node {
    BackgroundColor #E3F2FD
    BorderColor #424242
}


skinparam Package {
    BackgroundColor #E3F2FD
    BorderColor #424242
}
skinparam Stack {
    BackgroundColor #E3F2FD
    BorderColor #424242
}

skinparam Rectangle {
    BackgroundColor #E3F2FD
    BorderColor #424242
}

skinparam Storage {
    BackgroundColor #E3F2FD
    BorderColor #424242
}

skinparam rectangle<<usercase>> {
    Shadowing false
    StereotypeFontSize 0
    FontColor #424242
    BorderColor #424242
    BorderStyle dashed
    BackgroundColor White
}












class "CollectedEvent\n收集事件" as CollectLogEvent {
  OriginPrefix string
  Time time.Time
  UpdatedCount int
}

class "Collection\n收藏" as Collection {
  Origin string
  Title string
  Metadata map[string]string
  CollectTime time.Time
  PresentationIDs []string
}

class "File\n文件" as File {
  Path string
  ModTime time.Time
  Size int64
}

class "Presentation\n展示" as Presentation {
  Type Type
  Raw string
  Thumb string
  ThumbSuccessTag string
  ThumbErrorTag string
  Regular string
  RegularSuccessTag string
  RegularErrorTag string
}
Presentation "1" *- -> "*" File
Collection "*" o- -> "*" Presentation
@enduml

PlantUML version 1.2020.02(Sun Mar 01 10:22:07 UTC 2020)
(GPL source distribution)
Java Runtime: OpenJDK Runtime Environment
JVM: OpenJDK 64-Bit Server VM
Java Version: 1.8.0_242-b08
Operating System: Linux
Default Encoding: UTF-8
Language: en
Country: null
--></g></svg>