<?xml version="1.0" encoding="UTF-8" standalone="no"?><svg xmlns="http://www.w3.org/2000/svg" xmlns:xlink="http://www.w3.org/1999/xlink" contentScriptType="application/ecmascript" contentStyleType="text/css" height="287px" preserveAspectRatio="none" style="width:369px;height:287px;" version="1.1" viewBox="0 0 369 287" width="369px" zoomAndPan="magnify"><defs/><g><ellipse cx="198" cy="20" fill="#37A77C" rx="10" ry="10" style="stroke: none; stroke-width: 1.0;"/><polygon fill="#FFE0B2" points="32,50,158,50,170,62,158,74,32,74,20,62,32,50" style="stroke: #FFCC80; stroke-width: 1.0;"/><text fill="#222222" font-family="&quot;Arial&quot;,&quot;Microsoft YaHei&quot;,&quot;黑体&quot;,&quot;宋体&quot;,sans-serif" font-size="14" lengthAdjust="spacingAndGlyphs" textLength="126" x="32" y="66.8467">路径不匹配包含路径</text><ellipse cx="95" cy="104" fill="#FFFFFF" rx="10" ry="10" style="stroke: #F6363F; stroke-width: 1.5;"/><line style="stroke: #F6363F; stroke-width: 2.5;" x1="88.8128" x2="101.1872" y1="97.8128" y2="110.1872"/><line style="stroke: #F6363F; stroke-width: 2.5;" x1="101.1872" x2="88.8128" y1="97.8128" y2="110.1872"/><polygon fill="#FFE0B2" points="202,50,314,50,326,62,314,74,202,74,190,62,202,50" style="stroke: #FFCC80; stroke-width: 1.0;"/><text fill="#222222" font-family="&quot;Arial&quot;,&quot;Microsoft YaHei&quot;,&quot;黑体&quot;,&quot;宋体&quot;,sans-serif" font-size="14" lengthAdjust="spacingAndGlyphs" textLength="112" x="202" y="66.8467">路径匹配排除路径</text><ellipse cx="258" cy="104" fill="#FFFFFF" rx="10" ry="10" style="stroke: #F6363F; stroke-width: 1.5;"/><line style="stroke: #F6363F; stroke-width: 2.5;" x1="251.8128" x2="264.1872" y1="97.8128" y2="110.1872"/><line style="stroke: #F6363F; stroke-width: 2.5;" x1="264.1872" x2="251.8128" y1="97.8128" y2="110.1872"/><polygon fill="#FFE0B2" points="48,134,132,134,144,146,132,158,48,158,36,146,48,134" style="stroke: #FFCC80; stroke-width: 1.0;"/><text fill="#222222" font-family="&quot;Arial&quot;,&quot;Microsoft YaHei&quot;,&quot;黑体&quot;,&quot;宋体&quot;,sans-serif" font-size="14" lengthAdjust="spacingAndGlyphs" textLength="84" x="48" y="150.8467">路径是文件夹</text><rect fill="#BBDEFB" height="36.2969" rx="12.5" ry="12.5" style="stroke: #90CAF9; stroke-width: 1.0;" width="146" x="17" y="178"/><text fill="#222222" font-family="&quot;Arial&quot;,&quot;Microsoft YaHei&quot;,&quot;黑体&quot;,&quot;宋体&quot;,sans-serif" font-size="14" lengthAdjust="spacingAndGlyphs" textLength="126" x="27" y="200.9951">处理文件夹下的内容</text><polygon fill="#FFE0B2" points="200,134,312,134,324,146,312,158,200,158,188,146,200,134" style="stroke: #FFCC80; stroke-width: 1.0;"/><text fill="#222222" font-family="&quot;Arial&quot;,&quot;Microsoft YaHei&quot;,&quot;黑体&quot;,&quot;宋体&quot;,sans-serif" font-size="14" lengthAdjust="spacingAndGlyphs" textLength="112" x="200" y="150.8467">是支持的文件类型</text><rect fill="#BBDEFB" height="36.2969" rx="12.5" ry="12.5" style="stroke: #90CAF9; stroke-width: 1.0;" width="146" x="183" y="178"/><text fill="#222222" font-family="&quot;Arial&quot;,&quot;Microsoft YaHei&quot;,&quot;黑体&quot;,&quot;宋体&quot;,sans-serif" font-size="14" lengthAdjust="spacingAndGlyphs" textLength="126" x="193" y="200.9951">创建或更新对应收集</text><ellipse cx="198" cy="265.2969" fill="#FFFFFF" rx="11" ry="11" style="stroke: #F6363F; stroke-width: 1.0;"/><ellipse cx="198" cy="265.2969" fill="#F6363F" rx="6" ry="6" style="stroke: #FA9A9F; stroke-width: 1.0;"/><line style="stroke: #1565C0; stroke-width: 1.5;" x1="95" x2="95" y1="74" y2="94"/><polygon fill="#1565C0" points="91,84,95,94,99,84,95,88" style="stroke: #1565C0; stroke-width: 1.0;"/><line style="stroke: #1565C0; stroke-width: 1.5;" x1="258" x2="258" y1="74" y2="94"/><polygon fill="#1565C0" points="254,84,258,94,262,84,258,88" style="stroke: #1565C0; stroke-width: 1.0;"/><line style="stroke: #1565C0; stroke-width: 1.5;" x1="170" x2="190" y1="62" y2="62"/><polygon fill="#1565C0" points="180,58,190,62,180,66,184,62" style="stroke: #1565C0; stroke-width: 1.0;"/><line style="stroke: #1565C0; stroke-width: 1.5;" x1="198" x2="198" y1="30" y2="35"/><line style="stroke: #1565C0; stroke-width: 1.5;" x1="198" x2="95" y1="35" y2="35"/><line style="stroke: #1565C0; stroke-width: 1.5;" x1="95" x2="95" y1="35" y2="50"/><polygon fill="#1565C0" points="91,40,95,50,99,40,95,44" style="stroke: #1565C0; stroke-width: 1.0;"/><line style="stroke: #1565C0; stroke-width: 1.5;" x1="326" x2="340" y1="62" y2="62"/><line style="stroke: #1565C0; stroke-width: 1.5;" x1="340" x2="340" y1="62" y2="119"/><line style="stroke: #1565C0; stroke-width: 1.5;" x1="340" x2="198" y1="119" y2="119"/><line style="stroke: #1565C0; stroke-width: 1.5;" x1="198" x2="198" y1="119" y2="119"/><line style="stroke: #1565C0; stroke-width: 1.5;" x1="90" x2="90" y1="158" y2="178"/><polygon fill="#1565C0" points="86,168,90,178,94,168,90,172" style="stroke: #1565C0; stroke-width: 1.0;"/><line style="stroke: #1565C0; stroke-width: 1.5;" x1="90" x2="90" y1="214.2969" y2="234.2969"/><polygon fill="#1565C0" points="86,224.2969,90,234.2969,94,224.2969,90,228.2969" style="stroke: #1565C0; stroke-width: 1.0;"/><line style="stroke: #1565C0; stroke-width: 1.5;" x1="256" x2="256" y1="158" y2="178"/><polygon fill="#1565C0" points="252,168,256,178,260,168,256,172" style="stroke: #1565C0; stroke-width: 1.0;"/><line style="stroke: #1565C0; stroke-width: 1.5;" x1="256" x2="256" y1="214.2969" y2="234.2969"/><polygon fill="#1565C0" points="252,224.2969,256,234.2969,260,224.2969,256,228.2969" style="stroke: #1565C0; stroke-width: 1.0;"/><line style="stroke: #1565C0; stroke-width: 1.5;" x1="144" x2="188" y1="146" y2="146"/><polygon fill="#1565C0" points="178,142,188,146,178,150,182,146" style="stroke: #1565C0; stroke-width: 1.0;"/><line style="stroke: #1565C0; stroke-width: 1.5;" x1="198" x2="90" y1="119" y2="119"/><line style="stroke: #1565C0; stroke-width: 1.5;" x1="90" x2="90" y1="119" y2="134"/><polygon fill="#1565C0" points="86,124,90,134,94,124,90,128" style="stroke: #1565C0; stroke-width: 1.0;"/><line style="stroke: #1565C0; stroke-width: 1.5;" x1="324" x2="343" y1="146" y2="146"/><line style="stroke: #1565C0; stroke-width: 1.5;" x1="343" x2="343" y1="146" y2="234.2969"/><polygon fill="#1565C0" points="339,224.2969,343,234.2969,347,224.2969,343,228.2969" style="stroke: #1565C0; stroke-width: 1.0;"/><line style="stroke: #1565C0; stroke-width: 1.5;" x1="90" x2="343" y1="234.2969" y2="234.2969"/><line style="stroke: #1565C0; stroke-width: 1.5;" x1="198" x2="198" y1="234.2969" y2="254.2969"/><polygon fill="#1565C0" points="194,244.2969,198,254.2969,202,244.2969,198,248.2969" style="stroke: #1565C0; stroke-width: 1.0;"/><!--MD5=[2d335683f34dc744b6b36712406427b1]
@startuml
































skinparam maxMessageSize 150
skinparam ComponentStyle uml2
skinparam Shadowing false

skinparam Default {
    FontName "Arial","Microsoft YaHei","黑体","宋体",sans-serif
    FontColor #222222
    FontSize  14
    FontStyle plain
    Shadowing false
    TextAlignment center
    BackgroundColor #E3F2FD
    BorderColor #424242
}

skinparam Title {
    FontSize 20
    FontStyle bold
}

skinparam Note {
    BackgroundColor #90A4AE
    BorderColor #90A4AE
    BorderThickness 1
    FontColor White
    Shadowing false
    TextAlignment left
}

skinparam Note<<quit>> {

    BackgroundColor #F9A825
    BorderColor #F9A825
}

skinparam Sequence {
    ActorBorderThickness 1
    LifeLineBorderColor GREEN
    ParticipantBorderThickness 0
    Shadowing false


    GroupBorderThickness 1
    GroupBorderColor #1565C0
    GroupBackgroundColor #BBDEFB
}

skinparam Activity {

    StartColor #37A77C
    EndColor #F6363F
    AttributeFontColor white
    AttributeFontSize  15
    AttributeFontname  Droid Sans Mono

    BackgroundColor #BBDEFB
    BorderColor #90CAF9
    BorderThickness 1

    ArrowThickness 1


    BarColor   #0D47A1


    DiamondBackgroundColor   #FFE0B2
    DiamondBorderColor    #FFCC80


}

skinparam Class {
    BackgroundColor #E3F2FD
    BorderColor #64B5F6
    BorderThickness 1


    StereotypeFontColor #589DF6
    StereotypeFontSize 14
}



skinparam Interface {
    BackgroundColor #E3F2FD
    BorderColor #424242
    FontSize 14


    StereotypeFontColor #589DF6
    StereotypeFontSize 1
}



skinparam Participant {
    BackgroundColor #1565C0
    BorderColor #1565C0
    FontColor White
    Shadowing false
}

skinparam Actor {
    BackgroundColor #1565C0
    BorderColor #1565C0
    Shadowing false
}

skinparam UseCase {
    BackgroundColor #64B5F6
    BorderColor #64B5F6
    Shadowing false
    ArrowThickness 1
    ArrowColor #1565C0

    ActorBackgroundColor #1565C0
    ActorBorderColor #0D47A1
    ActorShadowing false
 
}


skinparam State {
    FontSize           17

    AttributeFontSize  14
    
    BackgroundColor    #BBDEFB
    BorderColor        #90CAF9
    StartColor #37A77C
    EndColor #F6363F
}

skinparam Partition {
    BorderColor #424242
    BorderStyle dashed

    BorderThickness 1
}

skinparam rectangle {
    StereotypeFontSize 12
    shadowing false
}

skinparam database {
    StereotypeFontSize 12
    shadowing false
}

skinparam Queue {
    BackgroundColor #E3F2FD
    BorderColor #424242
}
skinparam Agent {
    BackgroundColor #E3F2FD
    BorderColor #424242
}
skinparam Artifact {
    BackgroundColor #E3F2FD
    BorderColor #424242
}

skinparam Boundary {
    BackgroundColor #E3F2FD
    BorderColor #424242
}
skinparam Card {
    BackgroundColor #E3F2FD
    BorderColor #424242
}

skinparam Cloud {
    BackgroundColor #E3F2FD
    BorderColor #424242
}

skinparam Component {
    BackgroundColor #E3F2FD
    BorderColor #424242
}
skinparam Control {
    BackgroundColor #E3F2FD
    BorderColor #424242
}
skinparam Database {
    BackgroundColor #E3F2FD
    BorderColor #424242
}

skinparam Entity {
    BackgroundColor #E3F2FD
    BorderColor #424242
}
skinparam File {
    BackgroundColor #E3F2FD
    BorderColor #424242
}
skinparam Folder {
    BackgroundColor #E3F2FD
    BorderColor #424242
   
}
skinparam Frame {
    BackgroundColor #E3F2FD
    BorderColor #424242
}
skinparam Node {
    BackgroundColor #E3F2FD
    BorderColor #424242
}


skinparam Package {
    BackgroundColor #E3F2FD
    BorderColor #424242
}
skinparam Stack {
    BackgroundColor #E3F2FD
    BorderColor #424242
}

skinparam Rectangle {
    BackgroundColor #E3F2FD
    BorderColor #424242
}

skinparam Storage {
    BackgroundColor #E3F2FD
    BorderColor #424242
}

skinparam rectangle<<usercase>> {
    Shadowing false
    StereotypeFontSize 0
    FontColor #424242
    BorderColor #424242
    BorderStyle dashed
    BackgroundColor White
}












start
if (路径不匹配包含路径)
  end
elseif (路径匹配排除路径)
  end
endif
if (路径是文件夹)
  :处理文件夹下的内容;
elseif (是支持的文件类型)
  :创建或更新对应收集;
endif
stop
@enduml

PlantUML version 1.2020.02(Sun Mar 01 10:22:07 UTC 2020)
(GPL source distribution)
Java Runtime: OpenJDK Runtime Environment
JVM: OpenJDK 64-Bit Server VM
Java Version: 1.8.0_242-b08
Operating System: Linux
Default Encoding: UTF-8
Language: en
Country: null
--></g></svg>