<?xml version="1.0" encoding="UTF-8" standalone="no"?><svg xmlns="http://www.w3.org/2000/svg" xmlns:xlink="http://www.w3.org/1999/xlink" contentScriptType="application/ecmascript" contentStyleType="text/css" height="228px" preserveAspectRatio="none" style="width:220px;height:228px;" version="1.1" viewBox="0 0 220 228" width="220px" zoomAndPan="magnify"><defs/><g><!--MD5=[6a494c20d032ff54e1efa92c1369bc7b]
class Page--><rect fill="#E3F2FD" height="91.1875" id="Page" style="stroke: #64B5F6; stroke-width: 1.0;" width="76" x="6" y="8"/><ellipse cx="24.95" cy="29.2969" fill="#ADD1B2" rx="10" ry="10" style="stroke: #64B5F6; stroke-width: 1.0;"/><path d="M27.2781,33.9375 Q26.7625,34.2188 26.2,34.3594 Q25.6531,34.5 25.0281,34.5 Q23.075,34.5 21.9813,33.1094 Q20.9031,31.7188 20.9031,29.2031 Q20.9031,26.7031 21.9813,25.3125 Q23.075,23.9063 25.0281,23.9063 Q25.6531,23.9063 26.2,24.0469 Q26.7625,24.1875 27.2781,24.4688 L27.2781,25.875 Q26.7781,25.4688 26.2,25.25 Q25.6219,25.0313 25.0281,25.0313 Q23.6844,25.0313 23.0125,26.0781 Q22.3406,27.1094 22.3406,29.2031 Q22.3406,31.2969 23.0125,32.3438 Q23.6844,33.375 25.0281,33.375 Q25.6375,33.375 26.2156,33.1563 Q26.7938,32.9375 27.2781,32.5156 L27.2781,33.9375 Z "/><text fill="#222222" font-family="&quot;Arial&quot;,&quot;Microsoft YaHei&quot;,&quot;黑体&quot;,&quot;宋体&quot;,sans-serif" font-size="14" lengthAdjust="spacingAndGlyphs" textLength="35" x="39.05" y="25.9951">Page</text><text fill="#222222" font-family="&quot;Arial&quot;,&quot;Microsoft YaHei&quot;,&quot;黑体&quot;,&quot;宋体&quot;,sans-serif" font-size="14" lengthAdjust="spacingAndGlyphs" textLength="28" x="42.55" y="42.292">页面</text><line style="stroke: #64B5F6; stroke-width: 1.0;" x1="7" x2="81" y1="50.5938" y2="50.5938"/><text fill="#222222" font-family="&quot;Arial&quot;,&quot;Microsoft YaHei&quot;,&quot;黑体&quot;,&quot;宋体&quot;,sans-serif" font-size="14" lengthAdjust="spacingAndGlyphs" textLength="51" x="12" y="67.5889">id string</text><text fill="#222222" font-family="&quot;Arial&quot;,&quot;Microsoft YaHei&quot;,&quot;黑体&quot;,&quot;宋体&quot;,sans-serif" font-size="14" lengthAdjust="spacingAndGlyphs" textLength="64" x="12" y="83.8857">title string</text><line style="stroke: #64B5F6; stroke-width: 1.0;" x1="7" x2="81" y1="91.1875" y2="91.1875"/><!--MD5=[7b90a0373e11a97a69971d8f6b9d346b]
class PageItem--><rect fill="#E3F2FD" height="58.5938" id="PageItem" style="stroke: #64B5F6; stroke-width: 1.0;" width="95" x="114.5" y="159"/><ellipse cx="128.5" cy="180.2969" fill="#ADD1B2" rx="10" ry="10" style="stroke: #64B5F6; stroke-width: 1.0;"/><path d="M130.8281,184.9375 Q130.3125,185.2188 129.75,185.3594 Q129.2031,185.5 128.5781,185.5 Q126.625,185.5 125.5313,184.1094 Q124.4531,182.7188 124.4531,180.2031 Q124.4531,177.7031 125.5313,176.3125 Q126.625,174.9063 128.5781,174.9063 Q129.2031,174.9063 129.75,175.0469 Q130.3125,175.1875 130.8281,175.4688 L130.8281,176.875 Q130.3281,176.4688 129.75,176.25 Q129.1719,176.0313 128.5781,176.0313 Q127.2344,176.0313 126.5625,177.0781 Q125.8906,178.1094 125.8906,180.2031 Q125.8906,182.2969 126.5625,183.3438 Q127.2344,184.375 128.5781,184.375 Q129.1875,184.375 129.7656,184.1563 Q130.3438,183.9375 130.8281,183.5156 L130.8281,184.9375 Z "/><text fill="#222222" font-family="&quot;Arial&quot;,&quot;Microsoft YaHei&quot;,&quot;黑体&quot;,&quot;宋体&quot;,sans-serif" font-size="14" lengthAdjust="spacingAndGlyphs" textLength="65" x="141.5" y="176.9951">PageItem</text><text fill="#222222" font-family="&quot;Arial&quot;,&quot;Microsoft YaHei&quot;,&quot;黑体&quot;,&quot;宋体&quot;,sans-serif" font-size="14" lengthAdjust="spacingAndGlyphs" textLength="56" x="146" y="193.292">页面条目</text><line style="stroke: #64B5F6; stroke-width: 1.0;" x1="115.5" x2="208.5" y1="201.5938" y2="201.5938"/><line style="stroke: #64B5F6; stroke-width: 1.0;" x1="115.5" x2="208.5" y1="209.5938" y2="209.5938"/><!--MD5=[d4842b2c8a6d145cebd82168da1b1d14]
class PageCell--><rect fill="#E3F2FD" height="46" id="PageCell" style="stroke: #64B5F6; stroke-width: 1.0;" width="90" x="117" y="30.5"/><ellipse cx="131" cy="45.5" fill="#ADD1B2" rx="10" ry="10" style="stroke: #64B5F6; stroke-width: 1.0;"/><path d="M133.3281,50.1406 Q132.8125,50.4219 132.25,50.5625 Q131.7031,50.7031 131.0781,50.7031 Q129.125,50.7031 128.0313,49.3125 Q126.9531,47.9219 126.9531,45.4063 Q126.9531,42.9063 128.0313,41.5156 Q129.125,40.1094 131.0781,40.1094 Q131.7031,40.1094 132.25,40.25 Q132.8125,40.3906 133.3281,40.6719 L133.3281,42.0781 Q132.8281,41.6719 132.25,41.4531 Q131.6719,41.2344 131.0781,41.2344 Q129.7344,41.2344 129.0625,42.2813 Q128.3906,43.3125 128.3906,45.4063 Q128.3906,47.5 129.0625,48.5469 Q129.7344,49.5781 131.0781,49.5781 Q131.6875,49.5781 132.2656,49.3594 Q132.8438,49.1406 133.3281,48.7188 L133.3281,50.1406 Z "/><text fill="#222222" font-family="&quot;Arial&quot;,&quot;Microsoft YaHei&quot;,&quot;黑体&quot;,&quot;宋体&quot;,sans-serif" font-size="14" lengthAdjust="spacingAndGlyphs" textLength="60" x="144" y="50.3467">PageCell</text><line style="stroke: #64B5F6; stroke-width: 1.0;" x1="118" x2="206" y1="60.5" y2="60.5"/><line style="stroke: #64B5F6; stroke-width: 1.0;" x1="118" x2="206" y1="68.5" y2="68.5"/><!--MD5=[ff32fae3fc460a42a566d55dfd977af1]
link PageCell to PageItem--><path d="M162,81.9664 C162,102.9063 162,131.4817 162,153.7664 " fill="none" id="PageCell-PageItem" style="stroke: #1565C0; stroke-width: 1.0;"/><polygon fill="#1565C0" points="162,158.9975,166,149.9975,162,153.9975,158,149.9975,162,158.9975" style="stroke: #1565C0; stroke-width: 1.0;"/><path d="M158,81.7073 L166,89.7073 M166,81.7073 L158,89.7073 " fill="none" style="stroke: #1565C0; stroke-width: 1.0;"/><text fill="#222222" font-family="&quot;Arial&quot;,&quot;Microsoft YaHei&quot;,&quot;黑体&quot;,&quot;宋体&quot;,sans-serif" font-size="14" lengthAdjust="spacingAndGlyphs" textLength="7" x="154.1469" y="97.3454">*</text><text fill="#222222" font-family="&quot;Arial&quot;,&quot;Microsoft YaHei&quot;,&quot;黑体&quot;,&quot;宋体&quot;,sans-serif" font-size="14" lengthAdjust="spacingAndGlyphs" textLength="7" x="154.2344" y="147.8658">*</text><!--MD5=[b20567b3fbf0b6e173d373797dc0de42]
@startuml
































skinparam maxMessageSize 150
skinparam ComponentStyle uml2
skinparam Shadowing false

skinparam Default {
    FontName "Arial","Microsoft YaHei","黑体","宋体",sans-serif
    FontColor #222222
    FontSize  14
    FontStyle plain
    Shadowing false
    TextAlignment center
    BackgroundColor #E3F2FD
    BorderColor #424242
}

skinparam Title {
    FontSize 20
    FontStyle bold
}

skinparam Note {
    BackgroundColor #90A4AE
    BorderColor #90A4AE
    BorderThickness 1
    FontColor White
    Shadowing false
    TextAlignment left
}

skinparam Note<<quit>> {

    BackgroundColor #F9A825
    BorderColor #F9A825
}

skinparam Sequence {
    ActorBorderThickness 1
    LifeLineBorderColor GREEN
    ParticipantBorderThickness 0
    Shadowing false


    GroupBorderThickness 1
    GroupBorderColor #1565C0
    GroupBackgroundColor #BBDEFB
}

skinparam Activity {

    StartColor #37A77C
    EndColor #F6363F
    AttributeFontColor white
    AttributeFontSize  15
    AttributeFontname  Droid Sans Mono

    BackgroundColor #BBDEFB
    BorderColor #90CAF9
    BorderThickness 1

    ArrowThickness 1


    BarColor   #0D47A1


    DiamondBackgroundColor   #FFE0B2
    DiamondBorderColor    #FFCC80


}

skinparam Class {
    BackgroundColor #E3F2FD
    BorderColor #64B5F6
    BorderThickness 1


    StereotypeFontColor #589DF6
    StereotypeFontSize 14
}



skinparam Interface {
    BackgroundColor #E3F2FD
    BorderColor #424242
    FontSize 14


    StereotypeFontColor #589DF6
    StereotypeFontSize 1
}



skinparam Participant {
    BackgroundColor #1565C0
    BorderColor #1565C0
    FontColor White
    Shadowing false
}

skinparam Actor {
    BackgroundColor #1565C0
    BorderColor #1565C0
    Shadowing false
}

skinparam UseCase {
    BackgroundColor #64B5F6
    BorderColor #64B5F6
    Shadowing false
    ArrowThickness 1
    ArrowColor #1565C0

    ActorBackgroundColor #1565C0
    ActorBorderColor #0D47A1
    ActorShadowing false
 
}


skinparam State {
    FontSize           17

    AttributeFontSize  14
    
    BackgroundColor    #BBDEFB
    BorderColor        #90CAF9
    StartColor #37A77C
    EndColor #F6363F
}

skinparam Partition {
    BorderColor #424242
    BorderStyle dashed

    BorderThickness 1
}

skinparam rectangle {
    StereotypeFontSize 12
    shadowing false
}

skinparam database {
    StereotypeFontSize 12
    shadowing false
}

skinparam Queue {
    BackgroundColor #E3F2FD
    BorderColor #424242
}
skinparam Agent {
    BackgroundColor #E3F2FD
    BorderColor #424242
}
skinparam Artifact {
    BackgroundColor #E3F2FD
    BorderColor #424242
}

skinparam Boundary {
    BackgroundColor #E3F2FD
    BorderColor #424242
}
skinparam Card {
    BackgroundColor #E3F2FD
    BorderColor #424242
}

skinparam Cloud {
    BackgroundColor #E3F2FD
    BorderColor #424242
}

skinparam Component {
    BackgroundColor #E3F2FD
    BorderColor #424242
}
skinparam Control {
    BackgroundColor #E3F2FD
    BorderColor #424242
}
skinparam Database {
    BackgroundColor #E3F2FD
    BorderColor #424242
}

skinparam Entity {
    BackgroundColor #E3F2FD
    BorderColor #424242
}
skinparam File {
    BackgroundColor #E3F2FD
    BorderColor #424242
}
skinparam Folder {
    BackgroundColor #E3F2FD
    BorderColor #424242
   
}
skinparam Frame {
    BackgroundColor #E3F2FD
    BorderColor #424242
}
skinparam Node {
    BackgroundColor #E3F2FD
    BorderColor #424242
}


skinparam Package {
    BackgroundColor #E3F2FD
    BorderColor #424242
}
skinparam Stack {
    BackgroundColor #E3F2FD
    BorderColor #424242
}

skinparam Rectangle {
    BackgroundColor #E3F2FD
    BorderColor #424242
}

skinparam Storage {
    BackgroundColor #E3F2FD
    BorderColor #424242
}

skinparam rectangle<<usercase>> {
    Shadowing false
    StereotypeFontSize 0
    FontColor #424242
    BorderColor #424242
    BorderStyle dashed
    BackgroundColor White
}












class "Page\n页面" as Page {
  id string
  title string

}

class "PageItem\n页面条目" as PageItem {

}
PageCell "*" x- -> "*" PageItem
@enduml

PlantUML version 1.2020.02(Sun Mar 01 10:22:07 UTC 2020)
(GPL source distribution)
Java Runtime: OpenJDK Runtime Environment
JVM: OpenJDK 64-Bit Server VM
Java Version: 1.8.0_242-b08
Operating System: Linux
Default Encoding: UTF-8
Language: en
Country: null
--></g></svg>