<?xml version="1.0" encoding="UTF-8" standalone="no"?><svg xmlns="http://www.w3.org/2000/svg" xmlns:xlink="http://www.w3.org/1999/xlink" contentScriptType="application/ecmascript" contentStyleType="text/css" height="212px" preserveAspectRatio="none" style="width:210px;height:212px;" version="1.1" viewBox="0 0 210 212" width="210px" zoomAndPan="magnify"><defs><filter height="300%" id="f1oxrlv2ui6bcr" width="300%" x="-1" y="-1"><feGaussianBlur result="blurOut" stdDeviation="2.0"/><feColorMatrix in="blurOut" result="blurOut2" type="matrix" values="0 0 0 0 0 0 0 0 0 0 0 0 0 0 0 0 0 0 .4 0"/><feOffset dx="4.0" dy="4.0" in="blurOut2" result="blurOut3"/><feBlend in="SourceGraphic" in2="blurOut3" mode="normal"/></filter></defs><g><!--MD5=[6a494c20d032ff54e1efa92c1369bc7b]
class Page--><rect fill="#FEFECE" filter="url(#f1oxrlv2ui6bcr)" height="79.5469" id="Page" style="stroke: #A80036; stroke-width: 1.5;" width="70" x="6" y="8"/><ellipse cx="23.7" cy="26.9688" fill="#ADD1B2" rx="11" ry="11" style="stroke: #A80036; stroke-width: 1.0;"/><path d="M26.0438,22.6406 L26.2156,22.7188 C26.4344,22.4063 26.6375,22.3125 26.9344,22.3125 C27.2313,22.3125 27.5125,22.4531 27.6688,22.7188 C27.7625,22.875 27.7781,23 27.7781,23.4375 L27.7781,24.8594 C27.7781,25.2813 27.7469,25.4688 27.6375,25.625 C27.4656,25.8438 27.2,25.9844 26.9344,25.9844 C26.7156,25.9844 26.4813,25.875 26.3406,25.7344 C26.2,25.6094 26.1688,25.4844 26.1063,25.0781 C26.0125,24.6719 25.8406,24.4531 25.3563,24.1719 C24.8875,23.9219 24.2781,23.7656 23.7,23.7656 C21.9656,23.7656 20.7156,25.0781 20.7156,26.8594 L20.7156,27.9531 C20.7156,29.6563 22.0125,30.75 24.0594,30.75 C24.825,30.75 25.5125,30.625 25.9344,30.3594 C26.1219,30.2656 26.1219,30.2656 26.575,29.7813 C26.7625,29.5938 26.9656,29.5156 27.1844,29.5156 C27.6531,29.5156 28.0438,29.9063 28.0438,30.3594 C28.0438,30.75 27.7156,31.2031 27.1375,31.6094 C26.3875,32.1563 25.2313,32.4531 24.0125,32.4531 C21.1219,32.4531 19.0125,30.5625 19.0125,27.9844 L19.0125,26.8594 C19.0125,24.1406 21.0125,22.0625 23.6375,22.0625 C24.5125,22.0625 25.1063,22.2031 26.0438,22.6406 Z "/><text fill="#000000" font-family="sans-serif" font-size="12" lengthAdjust="spacingAndGlyphs" textLength="32" x="38.3" y="24.1387">Page</text><text fill="#000000" font-family="sans-serif" font-size="12" lengthAdjust="spacingAndGlyphs" textLength="24" x="42.3" y="38.1074">页面</text><line style="stroke: #A80036; stroke-width: 1.5;" x1="7" x2="75" y1="45.9375" y2="45.9375"/><text fill="#000000" font-family="sans-serif" font-size="11" lengthAdjust="spacingAndGlyphs" textLength="47" x="12" y="60.1479">id string</text><text fill="#000000" font-family="sans-serif" font-size="11" lengthAdjust="spacingAndGlyphs" textLength="58" x="12" y="72.9526">title string</text><line style="stroke: #A80036; stroke-width: 1.5;" x1="7" x2="75" y1="79.5469" y2="79.5469"/><!--MD5=[7b90a0373e11a97a69971d8f6b9d346b]
class PageItem--><rect fill="#FEFECE" filter="url(#f1oxrlv2ui6bcr)" height="53.9375" id="PageItem" style="stroke: #A80036; stroke-width: 1.5;" width="91" x="108.5" y="148"/><ellipse cx="123.5" cy="166.9688" fill="#ADD1B2" rx="11" ry="11" style="stroke: #A80036; stroke-width: 1.0;"/><path d="M125.8438,162.6406 L126.0156,162.7188 C126.2344,162.4063 126.4375,162.3125 126.7344,162.3125 C127.0313,162.3125 127.3125,162.4531 127.4688,162.7188 C127.5625,162.875 127.5781,163 127.5781,163.4375 L127.5781,164.8594 C127.5781,165.2813 127.5469,165.4688 127.4375,165.625 C127.2656,165.8438 127,165.9844 126.7344,165.9844 C126.5156,165.9844 126.2813,165.875 126.1406,165.7344 C126,165.6094 125.9688,165.4844 125.9063,165.0781 C125.8125,164.6719 125.6406,164.4531 125.1563,164.1719 C124.6875,163.9219 124.0781,163.7656 123.5,163.7656 C121.7656,163.7656 120.5156,165.0781 120.5156,166.8594 L120.5156,167.9531 C120.5156,169.6563 121.8125,170.75 123.8594,170.75 C124.625,170.75 125.3125,170.625 125.7344,170.3594 C125.9219,170.2656 125.9219,170.2656 126.375,169.7813 C126.5625,169.5938 126.7656,169.5156 126.9844,169.5156 C127.4531,169.5156 127.8438,169.9063 127.8438,170.3594 C127.8438,170.75 127.5156,171.2031 126.9375,171.6094 C126.1875,172.1563 125.0313,172.4531 123.8125,172.4531 C120.9219,172.4531 118.8125,170.5625 118.8125,167.9844 L118.8125,166.8594 C118.8125,164.1406 120.8125,162.0625 123.4375,162.0625 C124.3125,162.0625 124.9063,162.2031 125.8438,162.6406 Z "/><text fill="#000000" font-family="sans-serif" font-size="12" lengthAdjust="spacingAndGlyphs" textLength="59" x="137.5" y="164.1387">PageItem</text><text fill="#000000" font-family="sans-serif" font-size="12" lengthAdjust="spacingAndGlyphs" textLength="48" x="143" y="178.1074">页面条目</text><line style="stroke: #A80036; stroke-width: 1.5;" x1="109.5" x2="198.5" y1="185.9375" y2="185.9375"/><line style="stroke: #A80036; stroke-width: 1.5;" x1="109.5" x2="198.5" y1="193.9375" y2="193.9375"/><!--MD5=[d4842b2c8a6d145cebd82168da1b1d14]
class PageCell--><rect fill="#FEFECE" filter="url(#f1oxrlv2ui6bcr)" height="48" id="PageCell" style="stroke: #A80036; stroke-width: 1.5;" width="86" x="111" y="24"/><ellipse cx="126" cy="40" fill="#ADD1B2" rx="11" ry="11" style="stroke: #A80036; stroke-width: 1.0;"/><path d="M128.3438,35.6719 L128.5156,35.75 C128.7344,35.4375 128.9375,35.3438 129.2344,35.3438 C129.5313,35.3438 129.8125,35.4844 129.9688,35.75 C130.0625,35.9063 130.0781,36.0313 130.0781,36.4688 L130.0781,37.8906 C130.0781,38.3125 130.0469,38.5 129.9375,38.6563 C129.7656,38.875 129.5,39.0156 129.2344,39.0156 C129.0156,39.0156 128.7813,38.9063 128.6406,38.7656 C128.5,38.6406 128.4688,38.5156 128.4063,38.1094 C128.3125,37.7031 128.1406,37.4844 127.6563,37.2031 C127.1875,36.9531 126.5781,36.7969 126,36.7969 C124.2656,36.7969 123.0156,38.1094 123.0156,39.8906 L123.0156,40.9844 C123.0156,42.6875 124.3125,43.7813 126.3594,43.7813 C127.125,43.7813 127.8125,43.6563 128.2344,43.3906 C128.4219,43.2969 128.4219,43.2969 128.875,42.8125 C129.0625,42.625 129.2656,42.5469 129.4844,42.5469 C129.9531,42.5469 130.3438,42.9375 130.3438,43.3906 C130.3438,43.7813 130.0156,44.2344 129.4375,44.6406 C128.6875,45.1875 127.5313,45.4844 126.3125,45.4844 C123.4219,45.4844 121.3125,43.5938 121.3125,41.0156 L121.3125,39.8906 C121.3125,37.1719 123.3125,35.0938 125.9375,35.0938 C126.8125,35.0938 127.4063,35.2344 128.3438,35.6719 Z "/><text fill="#000000" font-family="sans-serif" font-size="12" lengthAdjust="spacingAndGlyphs" textLength="54" x="140" y="44.1543">PageCell</text><line style="stroke: #A80036; stroke-width: 1.5;" x1="112" x2="196" y1="56" y2="56"/><line style="stroke: #A80036; stroke-width: 1.5;" x1="112" x2="196" y1="64" y2="64"/><!--MD5=[ff32fae3fc460a42a566d55dfd977af1]
link PageCell to PageItem--><path d="M154,77.43 C154,96.865 154,122.6298 154,142.6582 " fill="none" id="PageCell-PageItem" style="stroke: #A80036; stroke-width: 1.0;"/><polygon fill="#A80036" points="154,147.8815,158,138.8815,154,142.8815,150,138.8815,154,147.8815" style="stroke: #A80036; stroke-width: 1.0;"/><path d="M150,77.219 L158,85.219 M158,77.219 L150,85.219 " fill="none" style="stroke: #A80036; stroke-width: 1.0;"/><text fill="#000000" font-family="sans-serif" font-size="13" lengthAdjust="spacingAndGlyphs" textLength="7" x="146.1469" y="92.0336">*</text><text fill="#000000" font-family="sans-serif" font-size="13" lengthAdjust="spacingAndGlyphs" textLength="7" x="146.1906" y="136.9654">*</text><!--MD5=[74488c007583303ee1456d91e607de91]
@startuml
class "Page\n页面" as Page {
  id string
  title string

}

class "PageItem\n页面条目" as PageItem {

}
PageCell "*" x- -> "*" PageItem
@enduml

PlantUML version 1.2020.03beta11(Unknown compile time)
(GPL source distribution)
Java Runtime: Java(TM) SE Runtime Environment
JVM: Java HotSpot(TM) 64-Bit Server VM
Java Version: 1.7.0_25-b15
Operating System: Linux
Default Encoding: UTF-8
Language: en
Country: US
--></g></svg>