<?xml version="1.0" encoding="UTF-8" standalone="no"?><svg xmlns="http://www.w3.org/2000/svg" xmlns:xlink="http://www.w3.org/1999/xlink" contentScriptType="application/ecmascript" contentStyleType="text/css" height="238px" preserveAspectRatio="none" style="width:152px;height:238px;" version="1.1" viewBox="0 0 152 238" width="152px" zoomAndPan="magnify"><defs><filter height="300%" id="f78xqxiskwha1" width="300%" x="-1" y="-1"><feGaussianBlur result="blurOut" stdDeviation="2.0"/><feColorMatrix in="blurOut" result="blurOut2" type="matrix" values="0 0 0 0 0 0 0 0 0 0 0 0 0 0 0 0 0 0 .4 0"/><feOffset dx="4.0" dy="4.0" in="blurOut2" result="blurOut3"/><feBlend in="SourceGraphic" in2="blurOut3" mode="normal"/></filter></defs><g><!--MD5=[161c3bb403169157d9ea11ed46eaa789]
class Gallery--><rect fill="#FEFECE" filter="url(#f78xqxiskwha1)" height="79.5469" id="Gallery" style="stroke: #A80036; stroke-width: 1.5;" width="74" x="36.5" y="8"/><ellipse cx="51.5" cy="26.9688" fill="#ADD1B2" rx="11" ry="11" style="stroke: #A80036; stroke-width: 1.0;"/><path d="M53.8438,22.6406 L54.0156,22.7188 C54.2344,22.4063 54.4375,22.3125 54.7344,22.3125 C55.0313,22.3125 55.3125,22.4531 55.4688,22.7188 C55.5625,22.875 55.5781,23 55.5781,23.4375 L55.5781,24.8594 C55.5781,25.2813 55.5469,25.4688 55.4375,25.625 C55.2656,25.8438 55,25.9844 54.7344,25.9844 C54.5156,25.9844 54.2813,25.875 54.1406,25.7344 C54,25.6094 53.9688,25.4844 53.9063,25.0781 C53.8125,24.6719 53.6406,24.4531 53.1563,24.1719 C52.6875,23.9219 52.0781,23.7656 51.5,23.7656 C49.7656,23.7656 48.5156,25.0781 48.5156,26.8594 L48.5156,27.9531 C48.5156,29.6563 49.8125,30.75 51.8594,30.75 C52.625,30.75 53.3125,30.625 53.7344,30.3594 C53.9219,30.2656 53.9219,30.2656 54.375,29.7813 C54.5625,29.5938 54.7656,29.5156 54.9844,29.5156 C55.4531,29.5156 55.8438,29.9063 55.8438,30.3594 C55.8438,30.75 55.5156,31.2031 54.9375,31.6094 C54.1875,32.1563 53.0313,32.4531 51.8125,32.4531 C48.9219,32.4531 46.8125,30.5625 46.8125,27.9844 L46.8125,26.8594 C46.8125,24.1406 48.8125,22.0625 51.4375,22.0625 C52.3125,22.0625 52.9063,22.2031 53.8438,22.6406 Z "/><text fill="#000000" font-family="sans-serif" font-size="12" lengthAdjust="spacingAndGlyphs" textLength="42" x="65.5" y="24.1387">Gallery</text><text fill="#000000" font-family="sans-serif" font-size="12" lengthAdjust="spacingAndGlyphs" textLength="24" x="74.5" y="38.1074">展馆</text><line style="stroke: #A80036; stroke-width: 1.5;" x1="37.5" x2="109.5" y1="45.9375" y2="45.9375"/><text fill="#000000" font-family="sans-serif" font-size="11" lengthAdjust="spacingAndGlyphs" textLength="47" x="42.5" y="60.1479">id string</text><text fill="#000000" font-family="sans-serif" font-size="11" lengthAdjust="spacingAndGlyphs" textLength="58" x="42.5" y="72.9526">title string</text><line style="stroke: #A80036; stroke-width: 1.5;" x1="37.5" x2="109.5" y1="79.5469" y2="79.5469"/><!--MD5=[7a7f832e4e2ff8587ae4c20712790f40]
class GalleryCollection--><rect fill="#FEFECE" filter="url(#f78xqxiskwha1)" height="79.5469" id="GalleryCollection" style="stroke: #A80036; stroke-width: 1.5;" width="135" x="6" y="148"/><ellipse cx="21" cy="166.9688" fill="#ADD1B2" rx="11" ry="11" style="stroke: #A80036; stroke-width: 1.0;"/><path d="M23.3438,162.6406 L23.5156,162.7188 C23.7344,162.4063 23.9375,162.3125 24.2344,162.3125 C24.5313,162.3125 24.8125,162.4531 24.9688,162.7188 C25.0625,162.875 25.0781,163 25.0781,163.4375 L25.0781,164.8594 C25.0781,165.2813 25.0469,165.4688 24.9375,165.625 C24.7656,165.8438 24.5,165.9844 24.2344,165.9844 C24.0156,165.9844 23.7813,165.875 23.6406,165.7344 C23.5,165.6094 23.4688,165.4844 23.4063,165.0781 C23.3125,164.6719 23.1406,164.4531 22.6563,164.1719 C22.1875,163.9219 21.5781,163.7656 21,163.7656 C19.2656,163.7656 18.0156,165.0781 18.0156,166.8594 L18.0156,167.9531 C18.0156,169.6563 19.3125,170.75 21.3594,170.75 C22.125,170.75 22.8125,170.625 23.2344,170.3594 C23.4219,170.2656 23.4219,170.2656 23.875,169.7813 C24.0625,169.5938 24.2656,169.5156 24.4844,169.5156 C24.9531,169.5156 25.3438,169.9063 25.3438,170.3594 C25.3438,170.75 25.0156,171.2031 24.4375,171.6094 C23.6875,172.1563 22.5313,172.4531 21.3125,172.4531 C18.4219,172.4531 16.3125,170.5625 16.3125,167.9844 L16.3125,166.8594 C16.3125,164.1406 18.3125,162.0625 20.9375,162.0625 C21.8125,162.0625 22.4063,162.2031 23.3438,162.6406 Z "/><text fill="#000000" font-family="sans-serif" font-size="12" lengthAdjust="spacingAndGlyphs" textLength="103" x="35" y="164.1387">GalleryCollection</text><text fill="#000000" font-family="sans-serif" font-size="12" lengthAdjust="spacingAndGlyphs" textLength="48" x="62.5" y="178.1074">展馆藏品</text><line style="stroke: #A80036; stroke-width: 1.5;" x1="7" x2="140" y1="185.9375" y2="185.9375"/><text fill="#000000" font-family="sans-serif" font-size="11" lengthAdjust="spacingAndGlyphs" textLength="74" x="12" y="200.1479">poster string</text><text fill="#000000" font-family="sans-serif" font-size="11" lengthAdjust="spacingAndGlyphs" textLength="71" x="12" y="212.9526">movie string</text><line style="stroke: #A80036; stroke-width: 1.5;" x1="7" x2="140" y1="219.5469" y2="219.5469"/><!--MD5=[aebffe76a0dfc89c028836c91c05372d]
link Gallery to GalleryCollection--><path d="M73.5,93.509 C73.5,109.189 73.5,126.808 73.5,142.4882 " fill="none" id="Gallery-GalleryCollection" style="stroke: #A80036; stroke-width: 1.0;"/><polygon fill="#A80036" points="73.5,147.7259,77.5,138.7259,73.5,142.7259,69.5,138.7259,73.5,147.7259" style="stroke: #A80036; stroke-width: 1.0;"/><path d="M69.5,93.176 L77.5,101.176 M77.5,93.176 L69.5,101.176 " fill="none" style="stroke: #A80036; stroke-width: 1.0;"/><text fill="#000000" font-family="sans-serif" font-size="13" lengthAdjust="spacingAndGlyphs" textLength="7" x="65.9641" y="107.5881">*</text><text fill="#000000" font-family="sans-serif" font-size="13" lengthAdjust="spacingAndGlyphs" textLength="7" x="65.9203" y="136.9287">*</text><!--MD5=[7742602a98c4a99bbba94aa53596d511]
@startuml
class "Gallery\n展馆" as Gallery {
  id string
  title string

}

class "GalleryCollection\n展馆藏品" as GalleryCollection {
  poster string
  movie string
}
Gallery "*" x- -> "*" GalleryCollection
@enduml

PlantUML version 1.2020.03beta11(Unknown compile time)
(GPL source distribution)
Java Runtime: Java(TM) SE Runtime Environment
JVM: Java HotSpot(TM) 64-Bit Server VM
Java Version: 1.7.0_25-b15
Operating System: Linux
Default Encoding: UTF-8
Language: en
Country: US
--></g></svg>