<?xml version="1.0" encoding="UTF-8" standalone="no"?><svg xmlns="http://www.w3.org/2000/svg" xmlns:xlink="http://www.w3.org/1999/xlink" contentScriptType="application/ecmascript" contentStyleType="text/css" height="677px" preserveAspectRatio="none" style="width:501px;height:677px;" version="1.1" viewBox="0 0 501 677" width="501px" zoomAndPan="magnify"><defs/><g><!--MD5=[5f339640b3181e341527f51383873741]
class Curator--><rect fill="#E3F2FD" height="58.5938" id="Curator" style="stroke: #64B5F6; stroke-width: 1.0;" width="81" x="6" y="216"/><ellipse cx="20" cy="237.2969" fill="#A9DCDF" rx="10" ry="10" style="stroke: #64B5F6; stroke-width: 1.0;"/><path d="M19.7188,232.8125 L18.25,238.0313 L21.1719,238.0313 L19.7188,232.8125 Z M18.875,231.5938 L20.5469,231.5938 L23.6719,241.7969 L22.25,241.7969 L21.5,239.1406 L17.9219,239.1406 L17.1875,241.7969 L15.75,241.7969 L18.875,231.5938 Z "/><text fill="#222222" font-family="&quot;Arial&quot;,&quot;Microsoft YaHei&quot;,&quot;黑体&quot;,&quot;宋体&quot;,sans-serif" font-size="14" font-style="italic" lengthAdjust="spacingAndGlyphs" textLength="51" x="33" y="233.9951">Curator</text><text fill="#222222" font-family="&quot;Arial&quot;,&quot;Microsoft YaHei&quot;,&quot;黑体&quot;,&quot;宋体&quot;,sans-serif" font-size="14" font-style="italic" lengthAdjust="spacingAndGlyphs" textLength="42" x="37.5" y="250.292">策展者</text><line style="stroke: #64B5F6; stroke-width: 1.0;" x1="7" x2="86" y1="258.5938" y2="258.5938"/><line style="stroke: #64B5F6; stroke-width: 1.0;" x1="7" x2="86" y1="266.5938" y2="266.5938"/><!--MD5=[161c3bb403169157d9ea11ed46eaa789]
class Gallery--><rect fill="#E3F2FD" height="123.7813" id="Gallery" style="stroke: #64B5F6; stroke-width: 1.0;" width="102" x="81.5" y="8"/><ellipse cx="107.2" cy="29.2969" fill="#ADD1B2" rx="10" ry="10" style="stroke: #64B5F6; stroke-width: 1.0;"/><path d="M109.5281,33.9375 Q109.0125,34.2188 108.45,34.3594 Q107.9031,34.5 107.2781,34.5 Q105.325,34.5 104.2313,33.1094 Q103.1531,31.7188 103.1531,29.2031 Q103.1531,26.7031 104.2313,25.3125 Q105.325,23.9063 107.2781,23.9063 Q107.9031,23.9063 108.45,24.0469 Q109.0125,24.1875 109.5281,24.4688 L109.5281,25.875 Q109.0281,25.4688 108.45,25.25 Q107.8719,25.0313 107.2781,25.0313 Q105.9344,25.0313 105.2625,26.0781 Q104.5906,27.1094 104.5906,29.2031 Q104.5906,31.2969 105.2625,32.3438 Q105.9344,33.375 107.2781,33.375 Q107.8875,33.375 108.4656,33.1563 Q109.0438,32.9375 109.5281,32.5156 L109.5281,33.9375 Z "/><text fill="#222222" font-family="&quot;Arial&quot;,&quot;Microsoft YaHei&quot;,&quot;黑体&quot;,&quot;宋体&quot;,sans-serif" font-size="14" lengthAdjust="spacingAndGlyphs" textLength="46" x="122.8" y="25.9951">Gallery</text><text fill="#222222" font-family="&quot;Arial&quot;,&quot;Microsoft YaHei&quot;,&quot;黑体&quot;,&quot;宋体&quot;,sans-serif" font-size="14" lengthAdjust="spacingAndGlyphs" textLength="28" x="131.8" y="42.292">展馆</text><line style="stroke: #64B5F6; stroke-width: 1.0;" x1="82.5" x2="182.5" y1="50.5938" y2="50.5938"/><text fill="#222222" font-family="&quot;Arial&quot;,&quot;Microsoft YaHei&quot;,&quot;黑体&quot;,&quot;宋体&quot;,sans-serif" font-size="14" lengthAdjust="spacingAndGlyphs" textLength="53" x="87.5" y="67.5889">ID string</text><text fill="#222222" font-family="&quot;Arial&quot;,&quot;Microsoft YaHei&quot;,&quot;黑体&quot;,&quot;宋体&quot;,sans-serif" font-size="14" lengthAdjust="spacingAndGlyphs" textLength="68" x="87.5" y="83.8857">Title string</text><text fill="#222222" font-family="&quot;Arial&quot;,&quot;Microsoft YaHei&quot;,&quot;黑体&quot;,&quot;宋体&quot;,sans-serif" font-size="14" lengthAdjust="spacingAndGlyphs" textLength="90" x="87.5" y="100.1826">Curator string</text><line style="stroke: #64B5F6; stroke-width: 1.0;" x1="82.5" x2="182.5" y1="107.4844" y2="107.4844"/><text fill="#222222" font-family="&quot;Arial&quot;,&quot;Microsoft YaHei&quot;,&quot;黑体&quot;,&quot;宋体&quot;,sans-serif" font-size="14" lengthAdjust="spacingAndGlyphs" textLength="43" x="87.5" y="124.4795">Pack()</text><!--MD5=[c160724f8e3bb89ca8141a12554ac2e3]
class Collection--><rect fill="#E3F2FD" height="107.4844" id="Collection" style="stroke: #64B5F6; stroke-width: 1.0;" width="194" x="122.5" y="192"/><ellipse cx="181.5" cy="213.2969" fill="#ADD1B2" rx="10" ry="10" style="stroke: #64B5F6; stroke-width: 1.0;"/><path d="M183.8281,217.9375 Q183.3125,218.2188 182.75,218.3594 Q182.2031,218.5 181.5781,218.5 Q179.625,218.5 178.5313,217.1094 Q177.4531,215.7188 177.4531,213.2031 Q177.4531,210.7031 178.5313,209.3125 Q179.625,207.9063 181.5781,207.9063 Q182.2031,207.9063 182.75,208.0469 Q183.3125,208.1875 183.8281,208.4688 L183.8281,209.875 Q183.3281,209.4688 182.75,209.25 Q182.1719,209.0313 181.5781,209.0313 Q180.2344,209.0313 179.5625,210.0781 Q178.8906,211.1094 178.8906,213.2031 Q178.8906,215.2969 179.5625,216.3438 Q180.2344,217.375 181.5781,217.375 Q182.1875,217.375 182.7656,217.1563 Q183.3438,216.9375 183.8281,216.5156 L183.8281,217.9375 Z "/><text fill="#222222" font-family="&quot;Arial&quot;,&quot;Microsoft YaHei&quot;,&quot;黑体&quot;,&quot;宋体&quot;,sans-serif" font-size="14" lengthAdjust="spacingAndGlyphs" textLength="68" x="200.5" y="209.9951">Collection</text><text fill="#222222" font-family="&quot;Arial&quot;,&quot;Microsoft YaHei&quot;,&quot;黑体&quot;,&quot;宋体&quot;,sans-serif" font-size="14" lengthAdjust="spacingAndGlyphs" textLength="28" x="220.5" y="226.292">展品</text><line style="stroke: #64B5F6; stroke-width: 1.0;" x1="123.5" x2="315.5" y1="234.5938" y2="234.5938"/><text fill="#222222" font-family="&quot;Arial&quot;,&quot;Microsoft YaHei&quot;,&quot;黑体&quot;,&quot;宋体&quot;,sans-serif" font-size="14" lengthAdjust="spacingAndGlyphs" textLength="68" x="128.5" y="251.5889">Title string</text><text fill="#222222" font-family="&quot;Arial&quot;,&quot;Microsoft YaHei&quot;,&quot;黑体&quot;,&quot;宋体&quot;,sans-serif" font-size="14" lengthAdjust="spacingAndGlyphs" textLength="182" x="128.5" y="267.8857">Metadata map[string]string</text><text fill="#222222" font-family="&quot;Arial&quot;,&quot;Microsoft YaHei&quot;,&quot;黑体&quot;,&quot;宋体&quot;,sans-serif" font-size="14" lengthAdjust="spacingAndGlyphs" textLength="83" x="128.5" y="284.1826">Tags []string</text><line style="stroke: #64B5F6; stroke-width: 1.0;" x1="123.5" x2="315.5" y1="291.4844" y2="291.4844"/><!--MD5=[63dd87716ef75a5caca5dce59428e94a]
class File--><rect fill="#E3F2FD" height="107.4844" id="File" style="stroke: #64B5F6; stroke-width: 1.0;" width="162" x="138.5" y="559"/><ellipse cx="201.5" cy="580.2969" fill="#ADD1B2" rx="10" ry="10" style="stroke: #64B5F6; stroke-width: 1.0;"/><path d="M203.8281,584.9375 Q203.3125,585.2188 202.75,585.3594 Q202.2031,585.5 201.5781,585.5 Q199.625,585.5 198.5313,584.1094 Q197.4531,582.7188 197.4531,580.2031 Q197.4531,577.7031 198.5313,576.3125 Q199.625,574.9063 201.5781,574.9063 Q202.2031,574.9063 202.75,575.0469 Q203.3125,575.1875 203.8281,575.4688 L203.8281,576.875 Q203.3281,576.4688 202.75,576.25 Q202.1719,576.0313 201.5781,576.0313 Q200.2344,576.0313 199.5625,577.0781 Q198.8906,578.1094 198.8906,580.2031 Q198.8906,582.2969 199.5625,583.3438 Q200.2344,584.375 201.5781,584.375 Q202.1875,584.375 202.7656,584.1563 Q203.3438,583.9375 203.8281,583.5156 L203.8281,584.9375 Z "/><text fill="#222222" font-family="&quot;Arial&quot;,&quot;Microsoft YaHei&quot;,&quot;黑体&quot;,&quot;宋体&quot;,sans-serif" font-size="14" lengthAdjust="spacingAndGlyphs" textLength="23" x="223" y="576.9951">File</text><text fill="#222222" font-family="&quot;Arial&quot;,&quot;Microsoft YaHei&quot;,&quot;黑体&quot;,&quot;宋体&quot;,sans-serif" font-size="14" lengthAdjust="spacingAndGlyphs" textLength="28" x="220.5" y="593.292">文件</text><line style="stroke: #64B5F6; stroke-width: 1.0;" x1="139.5" x2="299.5" y1="601.5938" y2="601.5938"/><text fill="#222222" font-family="&quot;Arial&quot;,&quot;Microsoft YaHei&quot;,&quot;黑体&quot;,&quot;宋体&quot;,sans-serif" font-size="14" lengthAdjust="spacingAndGlyphs" textLength="70" x="144.5" y="618.5889">Path string</text><text fill="#222222" font-family="&quot;Arial&quot;,&quot;Microsoft YaHei&quot;,&quot;黑体&quot;,&quot;宋体&quot;,sans-serif" font-size="14" lengthAdjust="spacingAndGlyphs" textLength="150" x="144.5" y="634.8857">ModificationTime Time</text><text fill="#222222" font-family="&quot;Arial&quot;,&quot;Microsoft YaHei&quot;,&quot;黑体&quot;,&quot;宋体&quot;,sans-serif" font-size="14" lengthAdjust="spacingAndGlyphs" textLength="64" x="144.5" y="651.1826">Size Int64</text><line style="stroke: #64B5F6; stroke-width: 1.0;" x1="139.5" x2="299.5" y1="658.4844" y2="658.4844"/><!--MD5=[084b903b0d76a744f5259c1ddd97ac75]
class PresentationType--><rect fill="#E3F2FD" height="91.1875" id="PresentationType" style="stroke: #64B5F6; stroke-width: 1.0;" width="152" x="338.5" y="383.5"/><ellipse cx="352.5" cy="404.7969" fill="#EB937F" rx="10" ry="10" style="stroke: #64B5F6; stroke-width: 1.0;"/><path d="M349.3438,399.5938 L355.4063,399.5938 L355.4063,400.75 L350.7344,400.75 L350.7344,403.7813 L355.2031,403.7813 L355.2031,404.9375 L350.7344,404.9375 L350.7344,408.6406 L355.5313,408.6406 L355.5313,409.7969 L349.3438,409.7969 L349.3438,399.5938 Z "/><text fill="#222222" font-family="&quot;Arial&quot;,&quot;Microsoft YaHei&quot;,&quot;黑体&quot;,&quot;宋体&quot;,sans-serif" font-size="14" lengthAdjust="spacingAndGlyphs" textLength="122" x="365.5" y="401.4951">PresentationType</text><text fill="#222222" font-family="&quot;Arial&quot;,&quot;Microsoft YaHei&quot;,&quot;黑体&quot;,&quot;宋体&quot;,sans-serif" font-size="14" lengthAdjust="spacingAndGlyphs" textLength="56" x="398.5" y="417.792">展示类型</text><line style="stroke: #64B5F6; stroke-width: 1.0;" x1="339.5" x2="489.5" y1="426.0938" y2="426.0938"/><text fill="#222222" font-family="&quot;Arial&quot;,&quot;Microsoft YaHei&quot;,&quot;黑体&quot;,&quot;宋体&quot;,sans-serif" font-size="14" lengthAdjust="spacingAndGlyphs" textLength="44" x="344.5" y="443.0889">IMAGE</text><text fill="#222222" font-family="&quot;Arial&quot;,&quot;Microsoft YaHei&quot;,&quot;黑体&quot;,&quot;宋体&quot;,sans-serif" font-size="14" lengthAdjust="spacingAndGlyphs" textLength="43" x="344.5" y="459.3857">VIDEO</text><line style="stroke: #64B5F6; stroke-width: 1.0;" x1="339.5" x2="489.5" y1="466.6875" y2="466.6875"/><!--MD5=[dbb7ba3d0d21354681a0e7a6e103d486]
class Presentation--><rect fill="#E3F2FD" height="140.0781" id="Presentation" style="stroke: #64B5F6; stroke-width: 1.0;" width="168" x="135.5" y="359"/><ellipse cx="172" cy="380.2969" fill="#ADD1B2" rx="10" ry="10" style="stroke: #64B5F6; stroke-width: 1.0;"/><path d="M174.3281,384.9375 Q173.8125,385.2188 173.25,385.3594 Q172.7031,385.5 172.0781,385.5 Q170.125,385.5 169.0313,384.1094 Q167.9531,382.7188 167.9531,380.2031 Q167.9531,377.7031 169.0313,376.3125 Q170.125,374.9063 172.0781,374.9063 Q172.7031,374.9063 173.25,375.0469 Q173.8125,375.1875 174.3281,375.4688 L174.3281,376.875 Q173.8281,376.4688 173.25,376.25 Q172.6719,376.0313 172.0781,376.0313 Q170.7344,376.0313 170.0625,377.0781 Q169.3906,378.1094 169.3906,380.2031 Q169.3906,382.2969 170.0625,383.3438 Q170.7344,384.375 172.0781,384.375 Q172.6875,384.375 173.2656,384.1563 Q173.8438,383.9375 174.3281,383.5156 L174.3281,384.9375 Z "/><text fill="#222222" font-family="&quot;Arial&quot;,&quot;Microsoft YaHei&quot;,&quot;黑体&quot;,&quot;宋体&quot;,sans-serif" font-size="14" lengthAdjust="spacingAndGlyphs" textLength="88" x="190" y="376.9951">Presentation</text><text fill="#222222" font-family="&quot;Arial&quot;,&quot;Microsoft YaHei&quot;,&quot;黑体&quot;,&quot;宋体&quot;,sans-serif" font-size="14" lengthAdjust="spacingAndGlyphs" textLength="28" x="220" y="393.292">展示</text><line style="stroke: #64B5F6; stroke-width: 1.0;" x1="136.5" x2="302.5" y1="401.5938" y2="401.5938"/><text fill="#222222" font-family="&quot;Arial&quot;,&quot;Microsoft YaHei&quot;,&quot;黑体&quot;,&quot;宋体&quot;,sans-serif" font-size="14" lengthAdjust="spacingAndGlyphs" textLength="156" x="141.5" y="418.5889">Type PresentationType</text><text fill="#222222" font-family="&quot;Arial&quot;,&quot;Microsoft YaHei&quot;,&quot;黑体&quot;,&quot;宋体&quot;,sans-serif" font-size="14" lengthAdjust="spacingAndGlyphs" textLength="52" x="141.5" y="434.8857">Raw File</text><text fill="#222222" font-family="&quot;Arial&quot;,&quot;Microsoft YaHei&quot;,&quot;黑体&quot;,&quot;宋体&quot;,sans-serif" font-size="14" lengthAdjust="spacingAndGlyphs" textLength="72" x="141.5" y="451.1826">Thumb File</text><text fill="#222222" font-family="&quot;Arial&quot;,&quot;Microsoft YaHei&quot;,&quot;黑体&quot;,&quot;宋体&quot;,sans-serif" font-size="14" lengthAdjust="spacingAndGlyphs" textLength="76" x="141.5" y="467.4795">Regular File</text><line style="stroke: #64B5F6; stroke-width: 1.0;" x1="136.5" x2="302.5" y1="474.7813" y2="474.7813"/><text fill="#222222" font-family="&quot;Arial&quot;,&quot;Microsoft YaHei&quot;,&quot;黑体&quot;,&quot;宋体&quot;,sans-serif" font-size="14" lengthAdjust="spacingAndGlyphs" textLength="84" x="141.5" y="491.7764">Transcode()</text><!--MD5=[607be59495d026913a8e71367fb28f49]
link Gallery to Curator--><path d="M99.6403,137.0567 C87.2552,162.3309 73.68,190.0339 63.3504,211.1133 " fill="none" id="Gallery-Curator" style="stroke: #1565C0; stroke-width: 1.0;"/><polygon fill="#1565C0" points="61.0644,215.7785,68.6166,209.4568,63.2646,211.2886,61.4328,205.9365,61.0644,215.7785" style="stroke: #1565C0; stroke-width: 1.0;"/><polygon fill="#1565C0" points="101.9375,132.3689,94.3851,138.6904,99.7372,136.8588,101.5689,142.2109,101.9375,132.3689" style="stroke: #1565C0; stroke-width: 1.0;"/><text fill="#222222" font-family="&quot;Arial&quot;,&quot;Microsoft YaHei&quot;,&quot;黑体&quot;,&quot;宋体&quot;,sans-serif" font-size="14" lengthAdjust="spacingAndGlyphs" textLength="7" x="91.4248" y="152.6474">*</text><text fill="#222222" font-family="&quot;Arial&quot;,&quot;Microsoft YaHei&quot;,&quot;黑体&quot;,&quot;宋体&quot;,sans-serif" font-size="14" lengthAdjust="spacingAndGlyphs" textLength="9" x="54.266" y="204.5989">1</text><!--MD5=[1cafcf12718409938a7a70148295cef8]
link Gallery to Collection--><path d="M165.6884,136.949 C173.9035,153.5208 182.6392,171.1428 190.6295,187.2613 " fill="none" id="Gallery-Collection" style="stroke: #1565C0; stroke-width: 1.0;"/><polygon fill="#1565C0" points="192.8624,191.7655,192.4486,181.9253,190.6415,187.2858,185.2811,185.4787,192.8624,191.7655" style="stroke: #1565C0; stroke-width: 1.0;"/><path d="M162.0548,138.6253 L172.7756,142.2397 M169.2225,135.0721 L165.608,145.7929 " fill="none" style="stroke: #1565C0; stroke-width: 1.0;"/><text fill="#222222" font-family="&quot;Arial&quot;,&quot;Microsoft YaHei&quot;,&quot;黑体&quot;,&quot;宋体&quot;,sans-serif" font-size="14" lengthAdjust="spacingAndGlyphs" textLength="7" x="159.2454" y="152.6474">*</text><text fill="#222222" font-family="&quot;Arial&quot;,&quot;Microsoft YaHei&quot;,&quot;黑体&quot;,&quot;宋体&quot;,sans-serif" font-size="14" lengthAdjust="spacingAndGlyphs" textLength="7" x="182.001" y="180.8389">*</text><!--MD5=[0244812863e11e3ea041cd8e5569dbc2]
link Presentation to File--><path d="M219.5,511.1589 C219.5,511.1589 219.5,535.0157 219.5,545.926 " fill="none" id="Presentation-File" style="stroke: #1565C0; stroke-width: 1.0;"/><polygon fill="#1565C0" points="219.5,558.9328,223.5,549.9328,219.5,553.9328,215.5,549.9328,219.5,558.9328" style="stroke: #1565C0; stroke-width: 1.0;"/><line style="stroke: #1565C0; stroke-width: 1.0;" x1="219.5" x2="219.5001" y1="553.9328" y2="545.9329"/><polygon fill="#1565C0" points="219.5,499.1589,215.5,505.1589,219.5,511.1589,223.5,505.1589,219.5,499.1589" style="stroke: #1565C0; stroke-width: 1.0;"/><text fill="#222222" font-family="&quot;Arial&quot;,&quot;Microsoft YaHei&quot;,&quot;黑体&quot;,&quot;宋体&quot;,sans-serif" font-size="14" lengthAdjust="spacingAndGlyphs" textLength="9" x="210.0359" y="520.2254">1</text><text fill="#222222" font-family="&quot;Arial&quot;,&quot;Microsoft YaHei&quot;,&quot;黑体&quot;,&quot;宋体&quot;,sans-serif" font-size="14" lengthAdjust="spacingAndGlyphs" textLength="7" x="212.0297" y="547.6422">*</text><!--MD5=[c0e3cc722b5643a7167c7f6891219d47]
link Collection to Presentation--><path d="M219.5,311.0691 C219.5,311.0691 219.5,334.5519 219.5,345.8379 " fill="none" id="Collection-Presentation" style="stroke: #1565C0; stroke-width: 1.0;"/><polygon fill="#1565C0" points="219.5,358.9649,223.5,349.9649,219.5,353.9649,215.5,349.9649,219.5,358.9649" style="stroke: #1565C0; stroke-width: 1.0;"/><line style="stroke: #1565C0; stroke-width: 1.0;" x1="219.5" x2="219.5001" y1="353.9649" y2="345.9649"/><polygon fill="#FFFFFF" points="219.5,299.0691,215.5,305.0691,219.5,311.0691,223.5,305.0691,219.5,299.0691" style="stroke: #1565C0; stroke-width: 1.0;"/><text fill="#222222" font-family="&quot;Arial&quot;,&quot;Microsoft YaHei&quot;,&quot;黑体&quot;,&quot;宋体&quot;,sans-serif" font-size="14" lengthAdjust="spacingAndGlyphs" textLength="9" x="209.8953" y="320.325">1</text><text fill="#222222" font-family="&quot;Arial&quot;,&quot;Microsoft YaHei&quot;,&quot;黑体&quot;,&quot;宋体&quot;,sans-serif" font-size="14" lengthAdjust="spacingAndGlyphs" textLength="7" x="212.1391" y="347.9239">*</text><!--MD5=[ad46c2edc0e3442f89c0c7eb20c7d367]
link Presentation to PresentationType--><path d="M308.811,429 C316.9524,429 325.0938,429 333.2352,429 " fill="none" id="Presentation-PresentationType" style="stroke: #1565C0; stroke-width: 1.0;"/><polygon fill="#1565C0" points="338.3043,429,329.3043,425,333.3043,429,329.3043,433,338.3043,429" style="stroke: #1565C0; stroke-width: 1.0;"/><path d="M308.6699,433 L316.6699,425 M308.6699,425 L316.6699,433 " fill="none" style="stroke: #1565C0; stroke-width: 1.0;"/><text fill="#222222" font-family="&quot;Arial&quot;,&quot;Microsoft YaHei&quot;,&quot;黑体&quot;,&quot;宋体&quot;,sans-serif" font-size="14" lengthAdjust="spacingAndGlyphs" textLength="7" x="311.478" y="425.2924">*</text><text fill="#222222" font-family="&quot;Arial&quot;,&quot;Microsoft YaHei&quot;,&quot;黑体&quot;,&quot;宋体&quot;,sans-serif" font-size="14" lengthAdjust="spacingAndGlyphs" textLength="9" x="321.613" y="425.2378">1</text><!--MD5=[0e827cab3e0b3856317240d5ae5a37a8]
@startuml
































skinparam maxMessageSize 150
skinparam ComponentStyle uml2
skinparam Shadowing false

skinparam Default {
    FontName "Arial","Microsoft YaHei","黑体","宋体",sans-serif
    FontColor #222222
    FontSize  14
    FontStyle plain
    Shadowing false
    TextAlignment center
    BackgroundColor #E3F2FD
    BorderColor #424242
}

skinparam Title {
    FontSize 20
    FontStyle bold
}

skinparam Note {
    BackgroundColor #90A4AE
    BorderColor #90A4AE
    BorderThickness 1
    FontColor White
    Shadowing false
    TextAlignment left
}

skinparam Note<<quit>> {

    BackgroundColor #F9A825
    BorderColor #F9A825
}

skinparam Sequence {
    ActorBorderThickness 1
    LifeLineBorderColor GREEN
    ParticipantBorderThickness 0
    Shadowing false


    GroupBorderThickness 1
    GroupBorderColor #1565C0
    GroupBackgroundColor #BBDEFB
}

skinparam Activity {

    StartColor #37A77C
    EndColor #F6363F
    AttributeFontColor white
    AttributeFontSize  15
    AttributeFontname  Droid Sans Mono

    BackgroundColor #BBDEFB
    BorderColor #90CAF9
    BorderThickness 1

    ArrowThickness 1


    BarColor   #0D47A1


    DiamondBackgroundColor   #FFE0B2
    DiamondBorderColor    #FFCC80


}

skinparam Class {
    BackgroundColor #E3F2FD
    BorderColor #64B5F6
    BorderThickness 1


    StereotypeFontColor #589DF6
    StereotypeFontSize 14
}



skinparam Interface {
    BackgroundColor #E3F2FD
    BorderColor #424242
    FontSize 14


    StereotypeFontColor #589DF6
    StereotypeFontSize 1
}



skinparam Participant {
    BackgroundColor #1565C0
    BorderColor #1565C0
    FontColor White
    Shadowing false
}

skinparam Actor {
    BackgroundColor #1565C0
    BorderColor #1565C0
    Shadowing false
}

skinparam UseCase {
    BackgroundColor #64B5F6
    BorderColor #64B5F6
    Shadowing false
    ArrowThickness 1
    ArrowColor #1565C0

    ActorBackgroundColor #1565C0
    ActorBorderColor #0D47A1
    ActorShadowing false
 
}


skinparam State {
    FontSize           17

    AttributeFontSize  14
    
    BackgroundColor    #BBDEFB
    BorderColor        #90CAF9
    StartColor #37A77C
    EndColor #F6363F
}

skinparam Partition {
    BorderColor #424242
    BorderStyle dashed

    BorderThickness 1
}

skinparam rectangle {
    StereotypeFontSize 12
    shadowing false
}

skinparam database {
    StereotypeFontSize 12
    shadowing false
}

skinparam Queue {
    BackgroundColor #E3F2FD
    BorderColor #424242
}
skinparam Agent {
    BackgroundColor #E3F2FD
    BorderColor #424242
}
skinparam Artifact {
    BackgroundColor #E3F2FD
    BorderColor #424242
}

skinparam Boundary {
    BackgroundColor #E3F2FD
    BorderColor #424242
}
skinparam Card {
    BackgroundColor #E3F2FD
    BorderColor #424242
}

skinparam Cloud {
    BackgroundColor #E3F2FD
    BorderColor #424242
}

skinparam Component {
    BackgroundColor #E3F2FD
    BorderColor #424242
}
skinparam Control {
    BackgroundColor #E3F2FD
    BorderColor #424242
}
skinparam Database {
    BackgroundColor #E3F2FD
    BorderColor #424242
}

skinparam Entity {
    BackgroundColor #E3F2FD
    BorderColor #424242
}
skinparam File {
    BackgroundColor #E3F2FD
    BorderColor #424242
}
skinparam Folder {
    BackgroundColor #E3F2FD
    BorderColor #424242
   
}
skinparam Frame {
    BackgroundColor #E3F2FD
    BorderColor #424242
}
skinparam Node {
    BackgroundColor #E3F2FD
    BorderColor #424242
}


skinparam Package {
    BackgroundColor #E3F2FD
    BorderColor #424242
}
skinparam Stack {
    BackgroundColor #E3F2FD
    BorderColor #424242
}

skinparam Rectangle {
    BackgroundColor #E3F2FD
    BorderColor #424242
}

skinparam Storage {
    BackgroundColor #E3F2FD
    BorderColor #424242
}

skinparam rectangle<<usercase>> {
    Shadowing false
    StereotypeFontSize 0
    FontColor #424242
    BorderColor #424242
    BorderStyle dashed
    BackgroundColor White
}












abstract class "Curator\n策展者" as Curator {

}
class "Gallery\n展馆" as Gallery {
  ID string
  Title string
  Curator string
  Pack()
}
Gallery "*" <- -> "1" Curator

class "Collection\n展品" as Collection {
  Title string
  Metadata map[string]string
  Tags []string
}
Gallery "*" x- -> "*" Collection

class "File\n文件" as File {
  Path string
  ModificationTime Time
  Size Int64
}
enum "PresentationType\n展示类型" as PresentationType {
  IMAGE
  VIDEO
}
class "Presentation\n展示" as Presentation {
  Type PresentationType
  Raw File
  Thumb File
  Regular File
  Transcode()
}
Presentation "1" *- -> "*" File
Collection "1" o- -> "*" Presentation
Presentation "*" x-> "1" PresentationType
@enduml

PlantUML version 1.2020.02(Sun Mar 01 10:22:07 UTC 2020)
(GPL source distribution)
Java Runtime: OpenJDK Runtime Environment
JVM: OpenJDK 64-Bit Server VM
Java Version: 1.8.0_242-b08
Operating System: Linux
Default Encoding: UTF-8
Language: en
Country: null
--></g></svg>